#N canvas 494 261 404 535 12;
#N canvas 852 140 851 553 osc_bank1 0;
#X obj 89 132 list prepend next;
#X obj 89 155 list trim;
#X obj 35 108 tresf, f 16;
#N canvas 480 146 1155 685 pitch_shifter 0;
#X floatatom 387 39 6 0 0 0 - - - 0;
#X obj 315 395 *~;
#X obj 759 159 line~;
#X floatatom 759 78 6 0 0 0 - - - 0;
#X obj 387 95 exp;
#X floatatom 387 121 6 0 0 0 - - - 0;
#X obj 387 211 /;
#X obj 452 147 * 0.001;
#X obj 239 461 cos~;
#X obj 239 488 *~;
#X obj 478 605 +~;
#X obj 715 377 wrap~;
#X obj 802 409 *~;
#X obj 715 485 cos~;
#X obj 715 512 *~;
#X obj 452 169 t b f;
#X floatatom 387 237 6 0 0 0 - - - 0;
#X obj 715 350 +~ 0.5;
#X obj 239 409 -~ 0.5;
#X obj 239 435 *~ 0.5;
#X obj 715 433 -~ 0.5;
#X obj 715 457 *~ 0.5;
#X obj 387 148 - 1;
#X obj 387 69 * 0.05776;
#X obj 387 174 * -1;
#X obj 387 268 phasor~;
#X obj 759 105 max 1;
#X msg 759 132 \$1 200;
#X text 432 39 <-- transposição em semitons;
#X text 195 121 velocidade de reprodução ->;
#X text 46 430 sinal da linha de delay é multiplicado por uma função cosseno para criar um envelope e evitar clicks e outros efeitos indesejáveis, f 27;
#X text 60 267 faz com que o tempo de atraso fique variando->;
#X text 507 606 <- soma os sinais das duais linhas de atraso;
#X text 810 78 <-- tamanho dos grãos em millisegundos;
#X text 418 458 <- linha de atraso 1 lê com atraso variável o sinal guardado no buffer del, f 21;
#X text 906 496 <- linha de atraso 2 lê o sinal guardado no buffer del com atraso variável e defasagem de 180 graus, f 25;
#X obj 478 636 outlet~;
#X obj 20 32 inlet~;
#X obj 1049 156 loadbang;
#X obj 759 52 r window;
#X obj 387 13 r transpose;
#X obj 20 56 delwrite~ del 5000;
#X msg 1049 179 \; window 100 \; transpose 4 \;;
#X obj 801 497 delread4~ del;
#X obj 315 458 delread4~ del;
#X connect 0 0 23 0;
#X connect 1 0 44 0;
#X connect 2 0 1 1;
#X connect 2 0 12 1;
#X connect 3 0 26 0;
#X connect 4 0 5 0;
#X connect 5 0 22 0;
#X connect 6 0 16 0;
#X connect 7 0 15 0;
#X connect 8 0 9 0;
#X connect 9 0 10 0;
#X connect 10 0 36 0;
#X connect 11 0 12 0;
#X connect 11 0 20 0;
#X connect 12 0 43 0;
#X connect 13 0 14 0;
#X connect 14 0 10 1;
#X connect 15 0 6 0;
#X connect 15 1 6 1;
#X connect 16 0 25 0;
#X connect 17 0 11 0;
#X connect 18 0 19 0;
#X connect 19 0 8 0;
#X connect 20 0 21 0;
#X connect 21 0 13 0;
#X connect 22 0 24 0;
#X connect 23 0 4 0;
#X connect 24 0 6 0;
#X connect 25 0 1 0;
#X connect 25 0 18 0;
#X connect 25 0 17 0;
#X connect 26 0 7 0;
#X connect 26 0 27 0;
#X connect 27 0 2 0;
#X connect 37 0 41 0;
#X connect 38 0 42 0;
#X connect 39 0 3 0;
#X connect 40 0 0 0;
#X connect 43 0 14 1;
#X connect 44 0 9 1;
#X restore 266 213 pd pitch_shifter;
#X obj 89 183 clone osc 128, f 87;
#X msg 291 157 all \$1;
#X obj 35 60 r \$0-tresf1;
#X obj 291 107 tabread4 velmap;
#X floatatom 291 85 5 0 127 0 - - - 0;
#X floatatom 291 130 5 0 0 0 - - - 0;
#X text 243 63 velmap;
#X obj 290 40 r velmap;
#X floatatom 448 60 5 0 0 0 - - - 0;
#X msg 493 158 all \$1;
#X msg 695 160 all \$1;
#X text 23 41 freq1 \, freq2 \, freq3;
#X obj 695 138 r 3f-durcoeff;
#X obj 493 136 r 3f-attack;
#X obj 89 279 *~;
#X obj 284 258 amp4~ 3f-osc-out;
#X obj 266 281 *~;
#X obj 611 214 setctl 3f-osc-out;
#X obj 611 235 genctl 3f-osc-out 50;
#X obj 89 311 snake~ in 2, f 26;
#X obj 88 487 throw~ osc-spat-out;
#X obj 96 461 send-vu osc-out-vu;
#X obj 88 388 delread~ \$0-osc 500 2;
#X obj 88 410 snake~ out 2, f 26;
#X obj 612 257 setctl 3f-del-out;
#X obj 613 279 genctl 3f-del-out 500;
#X obj 88 366 r 3f-del-out;
#X obj 276 495 send-vu oscps-out-vu;
#X obj 268 520 throw~ oscps-spat-out;
#X obj 267 433 delwrite~ \$0-osc-psout 500 1;
#X obj 268 458 delread~ \$0-osc-psout 30 1;
#X obj 290 63 cyclone/speedlim 10;
#X obj 89 231 hip~ 20;
#X obj 266 237 hip~ 20;
#X obj 89 336 delwrite~ \$0-osc 20000 2;
#X connect 0 0 1 0;
#X connect 1 0 4 0;
#X connect 2 1 0 0;
#X connect 3 0 37 0;
#X connect 4 0 3 0;
#X connect 4 0 36 0;
#X connect 5 0 4 1;
#X connect 6 0 2 0;
#X connect 7 0 9 0;
#X connect 8 0 7 0;
#X connect 9 0 5 0;
#X connect 11 0 12 0;
#X connect 11 0 35 0;
#X connect 13 0 4 2;
#X connect 14 0 4 3;
#X connect 16 0 14 0;
#X connect 17 0 13 0;
#X connect 18 0 23 0;
#X connect 19 0 18 1;
#X connect 19 0 20 1;
#X connect 20 0 23 1;
#X connect 23 0 38 0;
#X connect 26 0 27 0;
#X connect 27 0 25 0;
#X connect 27 0 24 0;
#X connect 27 1 33 0;
#X connect 30 0 26 0;
#X connect 34 0 31 0;
#X connect 34 0 32 0;
#X connect 35 0 8 0;
#X connect 36 0 18 0;
#X connect 37 0 20 0;
#X restore 29 6 pd osc_bank1;
#X msg 76 310 ampjitter \$1;
#X msg 67 206 maxfreqs \$1;
#X msg 75 254 maxamp \$1;
#X msg 41 104 lowf \$1;
#X msg 30 54 hif \$1;
#X msg 52 155 ampfactor \$1;
#X obj 28 455 s \$0-tresf1;
#X obj 30 30 r 3f-hifreq;
#X obj 52 133 r 3f-ampfactor;
#X obj 67 182 r 3f-maxfreq;
#X obj 75 230 r 3f-maxamp;
#X obj 41 81 r 3f-lowfreq;
#X obj 79 339 r 3f-proba;
#X obj 80 364 r 3f-freqfund;
#X obj 80 433 spigot;
#X obj 119 387 r onset-3f;
#X obj 119 411 == 1;
#N canvas 360 141 875 626 osc_bank2 0;
#X obj 89 132 list prepend next;
#X obj 89 155 list trim;
#X obj 35 108 tresf, f 16;
#N canvas 480 146 1155 685 pitch_shifter 0;
#X floatatom 387 39 6 0 0 0 - - - 0;
#X obj 315 395 *~;
#X obj 759 159 line~;
#X floatatom 759 78 6 0 0 0 - - - 0;
#X obj 387 95 exp;
#X floatatom 387 121 6 0 0 0 - - - 0;
#X obj 387 211 /;
#X obj 452 147 * 0.001;
#X obj 239 461 cos~;
#X obj 239 488 *~;
#X obj 478 605 +~;
#X obj 715 377 wrap~;
#X obj 802 409 *~;
#X obj 715 485 cos~;
#X obj 715 512 *~;
#X obj 452 169 t b f;
#X floatatom 387 237 6 0 0 0 - - - 0;
#X obj 715 350 +~ 0.5;
#X obj 239 409 -~ 0.5;
#X obj 239 435 *~ 0.5;
#X obj 715 433 -~ 0.5;
#X obj 715 457 *~ 0.5;
#X obj 387 148 - 1;
#X obj 387 69 * 0.05776;
#X obj 387 174 * -1;
#X obj 387 268 phasor~;
#X obj 759 105 max 1;
#X msg 759 132 \$1 200;
#X text 432 39 <-- transposição em semitons;
#X text 195 121 velocidade de reprodução ->;
#X text 46 430 sinal da linha de delay é multiplicado por uma função cosseno para criar um envelope e evitar clicks e outros efeitos indesejáveis, f 27;
#X text 60 267 faz com que o tempo de atraso fique variando->;
#X text 507 606 <- soma os sinais das duais linhas de atraso;
#X text 810 78 <-- tamanho dos grãos em millisegundos;
#X text 418 458 <- linha de atraso 1 lê com atraso variável o sinal guardado no buffer del, f 21;
#X text 906 496 <- linha de atraso 2 lê o sinal guardado no buffer del com atraso variável e defasagem de 180 graus, f 25;
#X obj 478 636 outlet~;
#X obj 20 32 inlet~;
#X obj 1049 156 loadbang;
#X obj 20 56 delwrite~ del2 5000;
#X obj 387 13 r transpose2;
#X obj 759 52 r window2;
#X msg 1049 179 \; window2 100 \; transpose2 4 \;;
#X obj 315 458 delread4~ del2;
#X obj 801 497 delread4~ del2;
#X connect 0 0 23 0;
#X connect 1 0 43 0;
#X connect 2 0 1 1;
#X connect 2 0 12 1;
#X connect 3 0 26 0;
#X connect 4 0 5 0;
#X connect 5 0 22 0;
#X connect 6 0 16 0;
#X connect 7 0 15 0;
#X connect 8 0 9 0;
#X connect 9 0 10 0;
#X connect 10 0 36 0;
#X connect 11 0 12 0;
#X connect 11 0 20 0;
#X connect 12 0 44 0;
#X connect 13 0 14 0;
#X connect 14 0 10 1;
#X connect 15 0 6 0;
#X connect 15 1 6 1;
#X connect 16 0 25 0;
#X connect 17 0 11 0;
#X connect 18 0 19 0;
#X connect 19 0 8 0;
#X connect 20 0 21 0;
#X connect 21 0 13 0;
#X connect 22 0 24 0;
#X connect 23 0 4 0;
#X connect 24 0 6 0;
#X connect 25 0 1 0;
#X connect 25 0 18 0;
#X connect 25 0 17 0;
#X connect 26 0 7 0;
#X connect 26 0 27 0;
#X connect 27 0 2 0;
#X connect 37 0 39 0;
#X connect 38 0 42 0;
#X connect 40 0 0 0;
#X connect 41 0 3 0;
#X connect 43 0 9 1;
#X connect 44 0 14 1;
#X restore 266 213 pd pitch_shifter;
#X msg 291 157 all \$1;
#X floatatom 291 85 5 0 127 0 - - - 0;
#X floatatom 291 130 5 0 0 0 - - - 0;
#X text 243 63 velmap;
#X floatatom 448 60 5 0 0 0 - - - 0;
#X msg 493 158 all \$1;
#X msg 695 160 all \$1;
#X text 23 41 freq1 \, freq2 \, freq3;
#X obj 89 279 *~;
#X obj 266 281 *~;
#X obj 89 311 snake~ in 2, f 26;
#X obj 89 413 snake~ out 2, f 26;
#X obj 290 63 cyclone/speedlim 10;
#X obj 89 231 hip~ 20;
#X obj 266 237 hip~ 20;
#X obj 35 60 r \$0-tresf2;
#X obj 290 40 r velmap2;
#X obj 611 214 setctl 3f2-osc-out;
#X obj 612 257 setctl 3f2-del-out;
#X obj 284 258 amp4~ 3f2-osc-out;
#X obj 89 337 delwrite~ \$0-osc2 20000 2;
#X obj 89 369 r 3f2-del-out;
#X obj 89 391 delread~ \$0-osc2 500 2;
#X obj 97 464 send-vu osc2-out-vu;
#X obj 89 490 throw~ osc2-spat-out;
#X obj 268 436 delwrite~ \$0-osc2-psout 500 1;
#X obj 277 498 send-vu oscps2-out-vu;
#X obj 269 523 throw~ oscps2-spat-out;
#X obj 493 136 r 3f2-attack;
#X obj 695 113 r 3f2-durcoeff;
#X obj 291 107 tabread4 velmap2;
#X obj 269 461 delread~ \$0-osc2-psout 50 1;
#X obj 695 137 line;
#X obj 89 183 clone osc 256, f 87;
#X obj 613 279 genctl 3f2-del-out 0;
#X obj 611 235 genctl 3f2-osc-out 0;
#X connect 0 0 1 0;
#X connect 1 0 37 0;
#X connect 2 1 0 0;
#X connect 3 0 18 0;
#X connect 4 0 37 1;
#X connect 5 0 34 0;
#X connect 6 0 4 0;
#X connect 9 0 37 2;
#X connect 10 0 37 3;
#X connect 12 0 14 0;
#X connect 13 0 14 1;
#X connect 14 0 24 0;
#X connect 15 0 27 0;
#X connect 15 0 28 0;
#X connect 15 1 29 0;
#X connect 16 0 5 0;
#X connect 17 0 12 0;
#X connect 18 0 13 0;
#X connect 19 0 2 0;
#X connect 20 0 8 0;
#X connect 20 0 16 0;
#X connect 23 0 12 1;
#X connect 23 0 13 1;
#X connect 25 0 26 0;
#X connect 26 0 15 0;
#X connect 32 0 9 0;
#X connect 33 0 36 0;
#X connect 34 0 6 0;
#X connect 35 0 30 0;
#X connect 35 0 31 0;
#X connect 36 0 10 0;
#X connect 37 0 3 0;
#X connect 37 0 17 0;
#X restore 222 11 pd osc_bank2;
#X msg 268 315 ampjitter \$1;
#X msg 259 211 maxfreqs \$1;
#X msg 267 259 maxamp \$1;
#X msg 233 109 lowf \$1;
#X msg 222 59 hif \$1;
#X msg 244 160 ampfactor \$1;
#X obj 270 475 spigot;
#X obj 309 453 == 1;
#X obj 222 35 r 3f2-hifreq;
#X obj 233 86 r 3f2-lowfreq;
#X obj 244 138 r 3f2-ampfactor;
#X obj 259 187 r 3f2-maxfreq;
#X obj 267 235 r 3f2-maxamp;
#X obj 76 286 r 3f-ampjitter;
#X obj 268 291 r 3f2-ampjitter;
#X obj 268 346 r 3f2-proba;
#X obj 270 406 r 3f2-freqfund;
#X obj 309 429 r onset-3f2;
#X obj 219 502 s \$0-tresf2;
#X obj 268 372 line;
#X connect 1 0 7 0;
#X connect 2 0 7 0;
#X connect 3 0 7 0;
#X connect 4 0 7 0;
#X connect 5 0 7 0;
#X connect 6 0 7 0;
#X connect 8 0 5 0;
#X connect 9 0 6 0;
#X connect 10 0 2 0;
#X connect 11 0 3 0;
#X connect 12 0 4 0;
#X connect 13 0 7 0;
#X connect 14 0 15 0;
#X connect 15 0 7 0;
#X connect 16 0 17 0;
#X connect 17 0 15 1;
#X connect 19 0 37 0;
#X connect 20 0 37 0;
#X connect 21 0 37 0;
#X connect 22 0 37 0;
#X connect 23 0 37 0;
#X connect 24 0 37 0;
#X connect 25 0 37 0;
#X connect 26 0 25 1;
#X connect 27 0 23 0;
#X connect 28 0 22 0;
#X connect 29 0 24 0;
#X connect 30 0 20 0;
#X connect 31 0 21 0;
#X connect 32 0 1 0;
#X connect 33 0 19 0;
#X connect 34 0 38 0;
#X connect 35 0 25 0;
#X connect 36 0 26 0;
#X connect 38 0 37 0;
