#N canvas 544 622 588 455 12;
#X obj 155 358 line~;
#X obj 155 275 unpack;
#X obj 169 223 r \$1;
#X obj 155 408 outlet~;
#X obj 169 247 t l b;
#X obj 362 223 f \$2;
#X obj 362 197 loadbang;
#X obj 236 234 f \$3;
#X msg 236 281 20;
#X obj 236 258 sel 0;
#X obj 271 281 moses 0;
#X msg 271 304 0;
#X obj 201 357 f;
#X obj 362 250 sel 0;
#X msg 362 277 16;
#X text 34 58 \$1 is the name of the receive symbol.;
#X obj 155 306 max 0;
#X text 31 158 outlet is the level as an audio signal.;
#X text 32 82 \$2 is output level for an input of 100 (default is 16
\, so that an input of "50" gives an output of 1).;
#X text 31 120 \$3 is ramp time when not specified by received message.
(default is 20 - to specify zero \, set \$3 negative.);
#X obj 155 383 *~;
#X obj 155 331 expr $f1*$f1*$f2*1e-4;
#X obj 362 306 sqrt;
#X text 81 8 control an amplitude using quartic units \, with parabola-shaped
ramps. By default \, 50 gives unit gain and 100 gives +24., f 64;
#X connect 0 0 20 0;
#X connect 0 0 20 1;
#X connect 1 0 16 0;
#X connect 1 1 0 1;
#X connect 2 0 4 0;
#X connect 4 0 1 0;
#X connect 4 1 12 0;
#X connect 5 0 13 0;
#X connect 6 0 5 0;
#X connect 6 0 7 0;
#X connect 7 0 9 0;
#X connect 8 0 12 1;
#X connect 9 0 8 0;
#X connect 9 1 10 0;
#X connect 10 0 11 0;
#X connect 10 1 12 1;
#X connect 11 0 12 1;
#X connect 12 0 0 1;
#X connect 13 0 14 0;
#X connect 13 1 22 0;
#X connect 14 0 22 0;
#X connect 16 0 21 0;
#X connect 20 0 3 0;
#X connect 21 0 0 0;
#X connect 22 0 21 1;
