#N canvas 294 474 249 256 12;
#N canvas 363 219 619 446 pqmf 1;
#X obj 24 156 snake~ out 16, f 59;
#X obj 511 12 r enable-pqmf;
#X obj 23 386 *~;
#X obj 23 409 outlet~;
#X obj 24 17 inlet~;
#X obj 189 396 *~;
#X obj 189 418 outlet~;
#X obj 357 389 *~;
#X obj 357 411 outlet~;
#X floatatom 530 320 5 0 99 0 - pqmf-reverb - 0;
#X obj 23 335 reverb, f 7;
#X obj 188 336 reverb, f 7;
#X obj 355 337 reverb, f 7;
#X obj 23 360 +~;
#X obj 189 373 +~;
#X obj 357 365 +~;
#N canvas 51 47 1171 368 route~ 0;
#X obj 383 55 inlet~;
#X obj 448 54 inlet~;
#X obj 509 54 inlet~;
#X obj 31 281 *~;
#X obj 31 329 outlet~;
#X obj 50 259 == 1;
#X obj 92 283 *~;
#X obj 110 261 == 2;
#X obj 162 284 *~;
#X obj 180 262 == 3;
#X obj 569 53 inlet~;
#X obj 226 288 *~;
#X obj 244 264 == 4;
#X obj 633 52 inlet~;
#X obj 288 292 *~;
#X obj 49 231 r pqmf1;
#X obj 378 328 outlet~;
#X obj 378 297 *~;
#X obj 395 275 == 1;
#X obj 466 294 *~;
#X obj 484 270 == 2;
#X obj 554 294 *~;
#X obj 572 272 == 3;
#X obj 645 298 *~;
#X obj 663 275 == 4;
#X obj 728 300 *~;
#X obj 305 269 == 5;
#X obj 745 277 == 5;
#X obj 394 244 r pqmf2;
#X obj 810 318 outlet~;
#X obj 809 288 *~;
#X obj 827 265 == 1;
#X obj 883 284 *~;
#X obj 901 260 == 2;
#X obj 957 284 *~;
#X obj 975 262 == 3;
#X obj 1032 288 *~;
#X obj 1050 265 == 4;
#X obj 1107 290 *~;
#X obj 1124 267 == 5;
#X obj 827 239 r pqmf3;
#X connect 0 0 3 0;
#X connect 0 0 17 0;
#X connect 0 0 30 0;
#X connect 1 0 6 0;
#X connect 1 0 19 0;
#X connect 1 0 32 0;
#X connect 2 0 8 0;
#X connect 2 0 21 0;
#X connect 2 0 34 0;
#X connect 3 0 4 0;
#X connect 5 0 3 1;
#X connect 6 0 4 0;
#X connect 7 0 6 1;
#X connect 8 0 4 0;
#X connect 9 0 8 1;
#X connect 10 0 11 0;
#X connect 10 0 23 0;
#X connect 10 0 36 0;
#X connect 11 0 4 0;
#X connect 12 0 11 1;
#X connect 13 0 14 0;
#X connect 13 0 25 0;
#X connect 13 0 38 0;
#X connect 14 0 4 0;
#X connect 15 0 5 0;
#X connect 15 0 7 0;
#X connect 15 0 9 0;
#X connect 15 0 12 0;
#X connect 15 0 26 0;
#X connect 17 0 16 0;
#X connect 18 0 17 1;
#X connect 19 0 16 0;
#X connect 20 0 19 1;
#X connect 21 0 16 0;
#X connect 22 0 21 1;
#X connect 23 0 16 0;
#X connect 24 0 23 1;
#X connect 25 0 16 0;
#X connect 26 0 14 1;
#X connect 27 0 25 1;
#X connect 28 0 18 0;
#X connect 28 0 27 0;
#X connect 28 0 24 0;
#X connect 28 0 22 0;
#X connect 28 0 20 0;
#X connect 30 0 29 0;
#X connect 31 0 30 1;
#X connect 32 0 29 0;
#X connect 33 0 32 1;
#X connect 34 0 29 0;
#X connect 35 0 34 1;
#X connect 36 0 29 0;
#X connect 37 0 36 1;
#X connect 38 0 29 0;
#X connect 39 0 38 1;
#X connect 40 0 31 0;
#X connect 40 0 39 0;
#X connect 40 0 37 0;
#X connect 40 0 35 0;
#X connect 40 0 34 0;
#X connect 40 0 33 0;
#X connect 40 0 32 0;
#X restore 24 190 pd route~;
#X f 48;
#X msg 38 84 set reset 1;
#X obj 511 35 switch~;
#X obj 24 112 conTorchionist/torch.ts~ pqmfmb.ts -m multibands -mc -v;
#X obj 24 213 delwrite~ band1 2000;
#X obj 190 215 delwrite~ band2 2000;
#X obj 357 214 delwrite~ band3 2000;
#X obj 59 363 amp4~ pqmf1-out;
#X obj 228 369 amp4~ pqmf2-out;
#X obj 406 362 amp4~ pqmf3-out;
#X obj 23 307 delread4~ band1 1150;
#X obj 188 309 delread4~ band2 1130;
#X obj 355 310 delread4~ band3 1110;
#X obj 24 258 r pqmf1-del;
#X obj 189 260 r pqmf2-del;
#X obj 355 262 r pqmf3-del;
#X obj 23 284 pack f 300;
#X obj 188 285 pack f 300;
#X obj 354 287 pack f 300;
#X connect 0 0 16 0;
#X connect 0 1 16 1;
#X connect 0 2 16 2;
#X connect 0 3 16 3;
#X connect 0 4 16 4;
#X connect 1 0 18 0;
#X connect 2 0 3 0;
#X connect 4 0 19 0;
#X connect 5 0 6 0;
#X connect 7 0 8 0;
#X connect 9 0 10 1;
#X connect 9 0 11 1;
#X connect 9 0 12 1;
#X connect 10 0 13 0;
#X connect 10 1 13 1;
#X connect 11 0 14 0;
#X connect 11 1 14 1;
#X connect 12 0 15 0;
#X connect 12 1 15 1;
#X connect 13 0 2 0;
#X connect 14 0 5 0;
#X connect 15 0 7 0;
#X connect 16 0 20 0;
#X connect 16 1 21 0;
#X connect 16 2 22 0;
#X connect 17 0 19 0;
#X connect 19 0 0 0;
#X connect 23 0 2 1;
#X connect 24 0 5 1;
#X connect 25 0 7 1;
#X connect 26 0 10 0;
#X connect 27 0 11 0;
#X connect 28 0 12 0;
#X connect 29 0 32 0;
#X connect 30 0 33 0;
#X connect 31 0 34 0;
#X connect 32 0 26 0;
#X connect 33 0 27 0;
#X connect 34 0 28 0;
#X restore 25 41 pd pqmf;
#X obj 25 110 throw~ pqmf1-spat-out;
#X obj 48 88 throw~ pqmf2-spat-out;
#X obj 71 65 throw~ pqmf3-spat-out;
#X obj 48 159 send-vu pqmf2-out-vu;
#X obj 24 184 send-vu pqmf1-out-vu;
#X obj 72 138 send-vu pqmf3-out-vu;
#X obj 25 17 r~ input-sig;
#X connect 0 0 1 0;
#X connect 0 0 5 0;
#X connect 0 1 2 0;
#X connect 0 1 4 0;
#X connect 0 2 3 0;
#X connect 0 2 6 0;
#X connect 7 0 0 0;
