#N canvas 126 47 1059 892 12;
#X obj 8 145 table chapo_spect 128;
#X msg 8 32 \; chapo_spect 0 126 119 112 106 99 92 85 78 72 65 58 51 44 37 31 24 17 30 43 56 69 56 43 29 16 3 2 2 2 2 2 2 2 2 4 7 9 11 14 16 13 10 8 5 2 1 1 1 1 1 1 1 2 3 5 6 8 9 8 6 5 3 2 2 2 2 2 1 1 1 1 1 1 3 4 6 7 9 7 6 4 3 1 1 1 1 1 1 1 1 1 1 1 1 3 4 6 7 6 4 3 1 1 1 1 1 1 1 1 1 1 1 1 1 1 1 1 1 1 1 1 1 1 1 1 0 0 0;
#X obj 214 152 inlet;
#X text 258 152 freq in HZ or 0 to turn off;
#X obj 215 314 *~;
#X obj 187 347 +~;
#X text 107 220 signal bus;
#X obj 363 267 pack 0 20;
#X obj 363 297 line~;
#X obj 363 222 r chapo-metro;
#X obj 363 244 expr ($f2 > 0) * chapo_spect[min(127\\\,$f1 * $f2)] * 0.00012;
#X obj 187 224 inlet~;
#X obj 187 373 outlet~;
#X obj 215 274 osc~, f 5;
#X obj 518 776 * 1000;
#X obj 518 808 speedlim 200;
#X floatatom 518 836 0 0 0 0 - - - 0;
#X obj 518 704 expr $f3 + $f2 * ($f1 - $f3);
#X msg 678 663 1;
#X obj 537 744 s chapo-metro;
#X obj 655 736 f;
#X floatatom 614 679 0 0 0 0 - - - 0;
#X obj 516 518 expr 1./(.00001 + $f1 * $f2);
#X obj 532 450 f;
#X obj 516 473 f;
#X obj 578 650 expr 20./$f1;
#X obj 578 624 split 20 1e+06;
#X floatatom 577 575 0 0 0 0 - - - 0;
#X obj 577 551 r porta;
#X floatatom 707 495 0 0 0 0 - - - 0;
#X obj 707 472 mtof;
#X obj 532 406 linedrive 127 0.2 1.07717 30;
#X obj 516 289 metro 20;
#X obj 578 600 * 1.3;
#X floatatom 532 340 0 0 0 0 - - - 0;
#X obj 532 318 r chat;
#X obj 532 365 split 1 117;
#X msg 651 365 117;
#X obj 894 433 loadbang;
#X msg 894 454 60;
#X obj 707 450 r pitch-track-out;
#X connect 2 0 10 1;
#X connect 2 0 13 0;
#X connect 4 0 5 1;
#X connect 5 0 12 0;
#X connect 7 0 8 0;
#X connect 8 0 4 1;
#X connect 9 0 10 0;
#X connect 10 0 7 0;
#X connect 11 0 5 0;
#X connect 13 0 4 0;
#X connect 14 0 15 0;
#X connect 15 0 16 0;
#X connect 17 0 14 0;
#X connect 17 0 20 0;
#X connect 17 0 19 0;
#X connect 18 0 21 0;
#X connect 20 0 17 2;
#X connect 21 0 17 1;
#X connect 22 0 17 0;
#X connect 23 0 24 1;
#X connect 24 0 22 0;
#X connect 25 0 21 0;
#X connect 26 0 25 0;
#X connect 26 1 18 0;
#X connect 27 0 33 0;
#X connect 28 0 27 0;
#X connect 29 0 22 1;
#X connect 30 0 29 0;
#X connect 31 0 23 0;
#X connect 32 0 24 0;
#X connect 33 0 26 0;
#X connect 34 0 36 0;
#X connect 35 0 34 0;
#X connect 36 0 31 0;
#X connect 36 1 37 0;
#X connect 37 0 31 0;
#X connect 38 0 39 0;
#X connect 39 0 30 0;
#X connect 40 0 30 0;
