#N canvas 516 252 362 321 12;
#X obj 22 205 *~;
#X obj 23 285 throw~ gaitacol-spat-out;
#X obj 33 262 send-vu gaitacol-out-vu;
#X obj 40 177 amp4~ gaitacol-out;
#X obj 225 51 switch~;
#X obj 225 28 r enable-gaitacol;
#X obj 23 238 reverb, f 7;
#X obj 69 215 r gaitacol-reverb;
#N canvas 679 181 1080 130 gaitacol-parameters 1;
#X obj 13 11 r gaitacol-freq;
#X obj 139 11 r gaitacol-jetdel;
#X obj 289 10 r gaitacol-vibfreq;
#X obj 428 9 r gaitacol-pression;
#X obj 576 8 r gaitacol-noise;
#X obj 704 7 r gaitacol-vibamount;
#X obj 428 31 line;
#X obj 13 35 line;
#X obj 704 29 line;
#X obj 576 29 line;
#X obj 139 35 line;
#X obj 289 34 line;
#X obj 13 82 outlet;
#X msg 13 58 freq \$1;
#X msg 139 58 jetdel \$1;
#X msg 289 57 vibfreq \$1;
#X msg 428 54 pression \$1;
#X msg 576 52 noise \$1;
#X msg 704 52 vibamount \$1;
#X obj 139 81 outlet;
#X obj 289 82 outlet;
#X obj 428 78 outlet;
#X obj 576 76 outlet;
#X obj 704 76 outlet;
#N canvas 932 252 450 407 modulation 1;
#X obj 69 90 *~ -0.5;
#X obj 69 113 +~ 0.5;
#X obj 69 237 * 0.3;
#X obj 69 160 snapshot~;
#X obj 83 137 bang~;
#X floatatom 159 120 5 0.5 1.5 0 - - - 0;
#X obj 69 64 osc~ 0.05;
#X obj 276 51 switch~;
#X obj 276 28 r enable-jetdelvar;
#X obj 100 185 r gaitacol-jetdel;
#X obj 69 36 r jetdelvar-ratio;
#X obj 159 94 r jetdelvar-amp;
#X obj 69 305 outlet;
#X obj 134 255 s jetdelvar;
#X obj 100 215 line;
#X obj 69 279 clip 0 1;
#X connect 0 0 1 0;
#X connect 1 0 3 0;
#X connect 2 0 13 0;
#X connect 2 0 15 0;
#X connect 3 0 2 0;
#X connect 4 0 3 0;
#X connect 6 0 0 0;
#X connect 8 0 7 0;
#X connect 9 0 14 0;
#X connect 10 0 6 0;
#X connect 11 0 1 1;
#X connect 11 0 5 0;
#X connect 14 0 2 1;
#X connect 15 0 12 0;
#X restore 856 10 pd modulation;
#X msg 856 33 jetdel \$1;
#X obj 856 56 outlet;
#X connect 0 0 7 0;
#X connect 1 0 10 0;
#X connect 2 0 11 0;
#X connect 3 0 6 0;
#X connect 4 0 9 0;
#X connect 5 0 8 0;
#X connect 6 0 16 0;
#X connect 7 0 13 0;
#X connect 8 0 18 0;
#X connect 9 0 17 0;
#X connect 10 0 14 0;
#X connect 11 0 15 0;
#X connect 13 0 12 0;
#X connect 14 0 19 0;
#X connect 15 0 20 0;
#X connect 16 0 21 0;
#X connect 17 0 22 0;
#X connect 18 0 23 0;
#X connect 24 0 25 0;
#X connect 25 0 26 0;
#X restore 22 29 pd gaitacol-parameters;
#X obj 22 102 *~ 0.25;
#X obj 22 78 gaitacol/gaitacol~;
#N canvas 294 154 1180 585 envelop 0;
#X obj 63 230 outlet;
#X obj 60 76 del 1000;
#X msg 159 161 set 0;
#X obj 11 35 t b f f, f 15;
#X obj 63 206 tabread4 envelope;
#X obj 132 10 loadbang;
#X msg 443 101 0;
#X obj 337 150 osc~;
#X obj 337 102 samplerate~;
#X obj 337 173 *~ -0.5;
#X obj 337 196 +~ 0.5;
#X obj 329 74 bng 19 250 50 0 empty empty empty 0 -6 0 8 #dfdfdf #000000 #000000;
#X obj 329 224 tabwrite~ envelope;
#X msg 63 146 64 \$1;
#X obj 338 126 / 63;
#X obj 329 50 r gaitacol-cresdim-env;
#X obj 338 355 osc~;
#X obj 338 307 samplerate~;
#X obj 338 378 *~ -0.5;
#X obj 338 401 +~ 0.5;
#X obj 330 279 bng 19 250 50 0 empty empty empty 0 -6 0 8 #dfdfdf #000000 #000000;
#X obj 330 429 tabwrite~ envelope;
#X obj 338 331 / 127.5;
#X msg 442 312 0.5;
#X obj 513 310 bng 19 250 50 0 empty empty empty 0 -6 0 8 #dfdfdf #000000 #000000;
#X obj 514 420 tabwrite~ envelope;
#X obj 522 346 noise~;
#X obj 522 369 *~ -0.5;
#X obj 522 392 +~ 0.5;
#X obj 513 285 r gaitacol-random-env;
#X obj 522 144 osc~;
#X obj 522 96 samplerate~;
#X obj 522 167 *~ -0.5;
#X obj 522 190 +~ 0.5;
#X obj 514 68 bng 19 250 50 0 empty empty empty 0 -6 0 8 #dfdfdf #000000 #000000;
#X obj 514 218 tabwrite~ envelope;
#X msg 626 101 0.5;
#X obj 522 120 / 63;
#X obj 514 45 r gaitacol-dimcres-env;
#X obj 689 145 osc~;
#X obj 689 97 samplerate~;
#X obj 689 168 *~ -0.5;
#X obj 689 191 +~ 0.5;
#X obj 681 69 bng 19 250 50 0 empty empty empty 0 -6 0 8 #dfdfdf #000000 #000000;
#X obj 681 219 tabwrite~ envelope;
#X msg 793 102 0;
#X obj 689 121 / 127.5;
#X obj 681 46 r gaitacol-cres-env;
#X obj 330 256 r gaitacol-dim-env;
#X obj 11 11 r gaitacol-dur;
#X msg 132 35 \; envelope color 900;
#X obj 63 180 line 10;
#X obj 863 147 osc~;
#X obj 863 99 samplerate~;
#X obj 863 170 *~ -0.5;
#X obj 863 193 +~ 0.5;
#X obj 855 71 bng 19 250 50 0 empty empty empty 0 -6 0 8 #dfdfdf #000000 #000000;
#X obj 855 221 tabwrite~ envelope;
#X msg 967 104 0.5;
#X obj 855 48 r gaitacol-osc-env;
#X obj 863 123 / 8;
#X obj 732 323 samplerate~;
#X obj 724 295 bng 19 250 50 0 empty empty empty 0 -6 0 8 #dfdfdf #000000 #000000;
#X obj 724 445 tabwrite~ envelope;
#X obj 724 272 r gaitacol-attack-env;
#X obj 732 371 phasor~;
#X obj 732 394 *~ -1;
#X obj 732 417 +~ 1;
#X msg 836 328 0;
#X obj 732 347 / 63;
#X connect 1 0 2 0;
#X connect 2 0 51 0;
#X connect 3 0 1 0;
#X connect 3 1 13 0;
#X connect 3 2 1 1;
#X connect 4 0 0 0;
#X connect 5 0 50 0;
#X connect 6 0 7 1;
#X connect 7 0 9 0;
#X connect 8 0 14 0;
#X connect 9 0 10 0;
#X connect 10 0 12 0;
#X connect 11 0 8 0;
#X connect 11 0 6 0;
#X connect 11 0 12 0;
#X connect 13 0 51 0;
#X connect 14 0 7 0;
#X connect 15 0 11 0;
#X connect 16 0 18 0;
#X connect 17 0 22 0;
#X connect 18 0 19 0;
#X connect 19 0 21 0;
#X connect 20 0 17 0;
#X connect 20 0 23 0;
#X connect 20 0 21 0;
#X connect 22 0 16 0;
#X connect 23 0 16 1;
#X connect 24 0 25 0;
#X connect 26 0 27 0;
#X connect 27 0 28 0;
#X connect 28 0 25 0;
#X connect 29 0 24 0;
#X connect 30 0 32 0;
#X connect 31 0 37 0;
#X connect 32 0 33 0;
#X connect 33 0 35 0;
#X connect 34 0 31 0;
#X connect 34 0 36 0;
#X connect 34 0 35 0;
#X connect 36 0 30 1;
#X connect 37 0 30 0;
#X connect 38 0 34 0;
#X connect 39 0 41 0;
#X connect 40 0 46 0;
#X connect 41 0 42 0;
#X connect 42 0 44 0;
#X connect 43 0 40 0;
#X connect 43 0 45 0;
#X connect 43 0 44 0;
#X connect 45 0 39 1;
#X connect 46 0 39 0;
#X connect 47 0 43 0;
#X connect 48 0 20 0;
#X connect 49 0 3 0;
#X connect 51 0 4 0;
#X connect 52 0 54 0;
#X connect 53 0 60 0;
#X connect 54 0 55 0;
#X connect 55 0 57 0;
#X connect 56 0 53 0;
#X connect 56 0 58 0;
#X connect 56 0 57 0;
#X connect 58 0 52 1;
#X connect 59 0 56 0;
#X connect 60 0 52 0;
#X connect 61 0 69 0;
#X connect 62 0 61 0;
#X connect 62 0 68 0;
#X connect 62 0 63 0;
#X connect 64 0 62 0;
#X connect 65 0 66 0;
#X connect 66 0 67 0;
#X connect 67 0 63 0;
#X connect 68 0 65 1;
#X connect 69 0 65 0;
#X restore 40 129 pd envelop;
#X obj 22 151 *~;
#X connect 0 0 6 0;
#X connect 3 0 0 1;
#X connect 5 0 4 0;
#X connect 6 0 1 0;
#X connect 6 0 2 0;
#X connect 7 0 6 1;
#X connect 8 0 10 0;
#X connect 8 1 10 0;
#X connect 8 2 10 0;
#X connect 8 3 10 0;
#X connect 8 4 10 0;
#X connect 8 5 10 0;
#X connect 8 6 10 0;
#X connect 9 0 12 0;
#X connect 10 0 9 0;
#X connect 11 0 12 1;
#X connect 12 0 0 0;
