#N canvas 1400 169 552 476 12;
#X obj 96 315 gaitacol/gaitacol~;
#X obj 96 343 *~, f 38;
#X obj 96 375 outlet~;
#X msg 97 237 freq \$1;
#X msg 140 214 jetdel \$1;
#X msg 182 191 vibfreq \$1;
#X msg 225 167 pression \$1;
#X msg 271 145 noise \$1;
#X msg 314 121 vibamount \$1;
#X obj 10 399 env~;
#X floatatom 10 423 5 0 0 0 - - - 0;
#X obj 97 38 unpack 0 0 0 0 0 0 0, f 55;
#X obj 97 13 inlet;
#X floatatom 43 92 5 0 0 0 - - - 0;
#X floatatom 479 111 5 0 0 0 - - - 0;
#X obj 10 276 print \$0-freq;
#X obj 193 279 print \$0-jetdel;
#X obj 233 245 print \$0-vibfreq;
#X obj 269 214 print \$0-pression;
#X obj 319 189 print \$0-noise;
#X obj 369 158 print \$0-vibamount;
#X obj 466 214 print \$0-env;
#X obj 23 188 f \$0;
#X obj 14 151 bng 19 250 50 0 empty empty empty 0 -10 0 12 #fcfcfc #000000 #000000;
#X floatatom 23 212 5 0 0 0 - - - 0;
#X connect 0 0 1 0;
#X connect 1 0 2 0;
#X connect 1 0 9 0;
#X connect 3 0 0 0;
#X connect 3 0 15 0;
#X connect 4 0 0 0;
#X connect 4 0 16 0;
#X connect 5 0 0 0;
#X connect 5 0 17 0;
#X connect 6 0 0 0;
#X connect 6 0 18 0;
#X connect 7 0 0 0;
#X connect 7 0 19 0;
#X connect 8 0 0 0;
#X connect 8 0 20 0;
#X connect 9 0 10 0;
#X connect 11 0 3 0;
#X connect 11 0 13 0;
#X connect 11 1 4 0;
#X connect 11 2 5 0;
#X connect 11 3 6 0;
#X connect 11 4 7 0;
#X connect 11 5 8 0;
#X connect 11 6 1 1;
#X connect 11 6 14 0;
#X connect 11 6 21 0;
#X connect 12 0 11 0;
#X connect 22 0 24 0;
#X connect 23 0 22 0;
