#N canvas 304 159 811 434 12;
#X obj 283 349 *~ 1;
#X obj 283 323 hoa.in~;
#X obj 283 373 hoa.out~;
#X text 396 40 Optimization type.;
#X text 113 322 signal of the harmonic;
#X text 98 372 new signal of the harmonic;
#X text 523 214 Algorithms of optimization.;
#N canvas 1209 216 452 414 maxRe 0;
#X obj 48 335 outlet;
#X obj 63 103 unpack 0 0;
#X obj 48 313 f;
#X obj 48 292 inlet;
#X obj 63 217 /, f 5;
#X obj 63 249 *, f 4;
#X obj 120 200 abs;
#X obj 90 174 * 2;
#X obj 90 195 + 2;
#X obj 120 221 t b f;
#X obj 63 131 t b f;
#X obj 63 271 cos;
#X obj 63 153 math.pi 1;
#X obj 63 79 r \$0-args;
#X connect 1 0 10 0;
#X connect 1 1 6 0;
#X connect 2 0 0 0;
#X connect 3 0 2 0;
#X connect 4 0 5 0;
#X connect 5 0 11 0;
#X connect 6 0 9 0;
#X connect 7 0 8 0;
#X connect 8 0 4 1;
#X connect 9 0 5 0;
#X connect 9 1 5 1;
#X connect 10 0 12 0;
#X connect 10 1 7 0;
#X connect 11 0 2 1;
#X connect 12 0 4 0;
#X connect 13 0 1 0;
#X restore 371 212 pd maxRe;
#N canvas 294 289 841 495 inPhase 0;
#X obj 82 346 outlet;
#X obj 128 48 unpack 0 0, f 33;
#X obj 82 223 inlet;
#X obj 82 325 f;
#N canvas 0 22 450 300 factorial 0;
#X obj 163 81 until;
#X obj 163 103 f 1;
#X obj 188 103 + 1;
#X obj 188 123 f 1;
#X obj 163 123 * 1;
#X obj 163 19 inlet, f 11;
#X obj 163 61 t f b, f 9;
#X obj 214 81 f 1;
#X obj 163 40 max 1;
#X obj 163 145 outlet;
#X connect 0 0 1 0;
#X connect 1 0 2 0;
#X connect 1 0 4 0;
#X connect 2 0 1 1;
#X connect 3 0 4 1;
#X connect 4 0 3 0;
#X connect 4 0 9 0;
#X connect 5 0 8 0;
#X connect 6 0 0 0;
#X connect 6 1 7 0;
#X connect 7 0 1 1;
#X connect 7 0 4 1;
#X connect 8 0 6 0;
#X restore 128 122 pd factorial;
#N canvas 0 22 450 300 factorial 0;
#X obj 163 81 until;
#X obj 163 103 f 1;
#X obj 188 103 + 1;
#X obj 188 123 f 1;
#X obj 163 123 * 1;
#X obj 163 19 inlet, f 11;
#X obj 163 61 t f b, f 9;
#X obj 214 81 f 1;
#X obj 163 40 max 1;
#X obj 163 145 outlet;
#X connect 0 0 1 0;
#X connect 1 0 2 0;
#X connect 1 0 4 0;
#X connect 2 0 1 1;
#X connect 3 0 4 1;
#X connect 4 0 3 0;
#X connect 4 0 9 0;
#X connect 5 0 8 0;
#X connect 6 0 0 0;
#X connect 6 1 7 0;
#X connect 7 0 1 1;
#X connect 7 0 4 1;
#X connect 8 0 6 0;
#X restore 251 140 pd factorial;
#X obj 251 119 +, f 5;
#X obj 251 97 t b f;
#N canvas 0 22 450 300 factorial 0;
#X obj 163 81 until;
#X obj 163 103 f 1;
#X obj 188 103 + 1;
#X obj 188 123 f 1;
#X obj 163 123 * 1;
#X obj 163 19 inlet, f 11;
#X obj 163 61 t f b, f 9;
#X obj 214 81 f 1;
#X obj 163 40 max 1;
#X obj 163 145 outlet;
#X connect 0 0 1 0;
#X connect 1 0 2 0;
#X connect 1 0 4 0;
#X connect 2 0 1 1;
#X connect 3 0 4 1;
#X connect 4 0 3 0;
#X connect 4 0 9 0;
#X connect 5 0 8 0;
#X connect 6 0 0 0;
#X connect 6 1 7 0;
#X connect 7 0 1 1;
#X connect 7 0 4 1;
#X connect 8 0 6 0;
#X restore 355 130 pd factorial;
#X obj 355 81 t b f;
#X obj 355 108 -, f 5;
#X obj 128 171 /, f 5;
#X obj 253 163 t b f;
#X obj 252 190 /, f 5;
#X obj 355 152 t b f;
#X obj 128 224 *, f 5;
#X obj 252 217 t b f;
#X obj 128 27 r \$0-args;
#X connect 1 0 4 0;
#X connect 1 0 6 0;
#X connect 1 0 10 0;
#X connect 1 1 7 0;
#X connect 1 1 9 0;
#X connect 2 0 3 0;
#X connect 3 0 0 0;
#X connect 4 0 11 0;
#X connect 4 0 13 0;
#X connect 5 0 12 0;
#X connect 6 0 5 0;
#X connect 7 0 6 0;
#X connect 7 1 6 1;
#X connect 8 0 14 0;
#X connect 9 0 10 0;
#X connect 9 1 10 1;
#X connect 10 0 8 0;
#X connect 11 0 15 0;
#X connect 12 0 11 0;
#X connect 12 1 11 1;
#X connect 13 0 16 0;
#X connect 14 0 13 0;
#X connect 14 1 13 1;
#X connect 15 0 3 1;
#X connect 16 0 15 0;
#X connect 16 1 15 1;
#X connect 17 0 1 0;
#X restore 435 212 pd inPhase;
#N canvas 294 82 450 300 basic 0;
#X obj 166 130 inlet;
#X obj 166 174 outlet;
#X obj 166 152 f 1;
#X connect 0 0 2 0;
#X connect 2 0 1 0;
#X restore 307 213 pd basic;
#X obj 307 20 hoa.in 1;
#X obj 307 89 prop @optim;
#X obj 381 338 prop.declare optim @s @default basic @enum basic maxre inphase;
#X obj 307 65 symbol;
#X obj 307 250 t f f;
#X floatatom 339 274 5 0 0 0 - - - 0;
#X obj 307 186 route basic maxre inphase, f 28;
#X obj 499 96 hoa.@process;
#X obj 499 118 prop-> @order @hdegree;
#X obj 547 144 pack f f;
#X obj 307 141 t s b;
#X msg 499 73 @order? @hdegree?;
#X obj 307 117 flow.pipe 10;
#X msg 307 163 \$1;
#X obj 307 43 route @optim;
#X obj 547 166 s \$0-args;
#X obj 10 10 switch~;
#X obj 209 113 print;
#X connect 0 0 2 0;
#X connect 1 0 0 0;
#X connect 7 0 14 0;
#X connect 8 0 14 0;
#X connect 9 0 14 0;
#X connect 10 0 24 0;
#X connect 11 0 22 0;
#X connect 13 0 11 0;
#X connect 13 0 27 0;
#X connect 14 0 0 1;
#X connect 14 1 15 0;
#X connect 16 0 9 0;
#X connect 16 1 7 0;
#X connect 16 2 8 0;
#X connect 17 0 18 0;
#X connect 18 1 19 0;
#X connect 18 2 19 1;
#X connect 19 0 25 0;
#X connect 20 0 23 0;
#X connect 20 1 21 0;
#X connect 21 0 17 0;
#X connect 22 0 20 0;
#X connect 23 0 16 0;
#X connect 24 0 13 0;
