#N canvas 796 390 600 476 12;
#X obj 257 25 inlet;
#X obj 90 79 moses \$1;
#X obj 142 137 f \$1;
#X obj 142 110 bang;
#X obj 204 411 outlet;
#X obj 198 375 pack 0 \$4;
#X msg 57 288 0;
#X obj 162 200 - \$1;
#X obj 164 325 * \$2;
#X obj 164 279 pow;
#X obj 162 225 t b f;
#X obj 139 254 f \$3;
#X obj 90 168 moses 1;
#X obj 251 52 unpack;
#X obj 390 28 inlet;
#X connect 0 0 13 0;
#X connect 1 0 12 0;
#X connect 1 1 3 0;
#X connect 2 0 12 0;
#X connect 3 0 2 0;
#X connect 5 0 4 0;
#X connect 6 0 5 0;
#X connect 7 0 10 0;
#X connect 8 0 5 0;
#X connect 9 0 8 0;
#X connect 10 0 11 0;
#X connect 10 1 9 1;
#X connect 11 0 9 0;
#X connect 12 0 6 0;
#X connect 12 1 7 0;
#X connect 13 0 1 0;
#X connect 13 1 5 1;
#X connect 14 0 5 1;
