#N canvas 825 241 1259 811 12;
#X obj 195 494 f;
#X obj 195 462 until;
#X obj 195 407 t f f;
#X obj 195 436 expr abs(int(($f2-$f1)/$f3)+1);
#X obj 195 205 t l l;
#X obj 235 231 unpack 0 0;
#X obj 234 257 !=;
#X obj 195 281 spigot;
#X obj 440 434 expr if($f2>$f1 \, abs($f3) \, abs($f3)*-1);
#X obj 272 375 unpack 0 0 0;
#X obj 227 494 +;
#X obj 195 378 unpack 0 0;
#X obj 276 135 expr if($f1==0 \, 1 \, $f1);
#X obj 195 182 pack 0 0 0;
#X obj 195 46 inlet;
#X obj 195 304 t l l b;
#X floatatom 353 103 5 0 0 0 - - - 0;
#X obj 241 327 s \$0-resetlist;
#X obj 229 158 expr if($f1==0 \, 10 \, $f1);
#X obj 195 71 route list bang;
#X obj 913 201 list store;
#X msg 913 179 append \$1;
#X obj 913 225 outlet;
#X obj 981 178 r \$0-resetlist;
#X obj 193 534 outlet;
#X obj 195 103 unpack f f f;
#X connect 0 0 10 0;
#X connect 0 0 24 0;
#X connect 1 0 0 0;
#X connect 2 0 3 0;
#X connect 2 1 0 1;
#X connect 3 0 1 0;
#X connect 4 0 7 0;
#X connect 4 1 5 0;
#X connect 5 0 6 0;
#X connect 5 1 6 1;
#X connect 6 0 7 1;
#X connect 7 0 15 0;
#X connect 8 0 3 2;
#X connect 8 0 10 1;
#X connect 9 0 8 0;
#X connect 9 1 8 1;
#X connect 9 2 8 2;
#X connect 10 0 0 1;
#X connect 11 0 2 0;
#X connect 11 1 3 1;
#X connect 12 0 13 2;
#X connect 13 0 4 0;
#X connect 14 0 19 0;
#X connect 15 0 11 0;
#X connect 15 1 9 0;
#X connect 15 2 17 0;
#X connect 18 0 13 1;
#X connect 19 0 25 0;
#X connect 20 0 22 0;
#X connect 21 0 20 0;
#X connect 23 0 20 1;
#X connect 25 0 13 0;
#X connect 25 1 18 0;
#X connect 25 2 12 0;
#X connect 25 2 16 0;
