#N canvas 441 93 1098 808 12;
#X obj 535 320 timer, f 6;
#X obj 535 356 t f f, f 6;
#X obj 535 387 +;
#X obj 535 465 pack f f f, f 11;
#X floatatom 643 339 8 0 0 1 before\ attack(ms) - - 0;
#X obj 686 174 t f f, f 6;
#X text 622 467 <- total(start point) \, end point \, dur attack;
#X obj 73 350 tabwrite~ reverse;
#X obj 535 529 line~;
#X text 604 496 start(samples) \, end(samples) dur(ms);
#X msg 535 495 \$1 \, \$2 \$3;
#X obj 574 381 expr ($f1*44100)/1000;
#X obj 535 412 expr ($f1*44100)/1000;
#X obj 535 551 tabread4~ reverse;
#X obj 535 704 *~;
#X obj 535 727 throw~ reverse-spat-out;
#X obj 201 31 r reverse-attack-time;
#X obj 76 32 r reverse-event;
#X obj 121 193 r~ input-sig;
#X obj 584 37 switch~;
#X obj 584 13 r enable-reverse;
#N canvas 1666 251 479 360 chronometer 0;
#X obj 74 160 f;
#X msg 203 141 0;
#X floatatom 74 216 6 0 0 1 counting\ time - reverse-chronometer 0;
#X obj 74 185 * 1000;
#X obj 74 133 metro 500;
#X obj 131 160 + 0.5;
#X obj 106 283 timer;
#X floatatom 106 307 5 0 0 1 total\ time\ length - - 0;
#X obj 74 86 t f b b, f 9;
#X obj 42 7 inlet;
#X obj 131 184 sel 20.5;
#X obj 131 242 t b b b;
#X obj 177 269 outlet;
#X text 224 270 bangs every 20 seconds;
#X obj 42 35 t f f;
#X obj 45 253 sel 0;
#X connect 0 0 3 0;
#X connect 0 0 5 0;
#X connect 1 0 0 1;
#X connect 3 0 2 0;
#X connect 4 0 0 0;
#X connect 5 0 0 1;
#X connect 5 0 10 0;
#X connect 6 0 7 0;
#X connect 8 0 4 0;
#X connect 8 1 6 0;
#X connect 8 2 1 0;
#X connect 9 0 14 0;
#X connect 10 0 1 0;
#X connect 10 0 11 0;
#X connect 11 0 6 0;
#X connect 11 1 6 1;
#X connect 11 2 12 0;
#X connect 14 0 15 0;
#X connect 14 1 8 0;
#X connect 15 0 12 0;
#X restore 704 146 pd chronometer;
#X obj 565 233 t b b b;
#X msg 611 257 const 0;
#X obj 611 281 array define reverse 882000;
#X obj 739 567 line 0 50;
#X msg 739 529 0 \, 1 \$3 50;
#X obj 535 620 *~;
#X obj 739 595 sel 1;
#X obj 739 643 line 0 50;
#X msg 739 621 0 100;
#X obj 553 681 amp4~ reverse-out;
#X obj 730 724 send-vu reverse-out-vu;
#X msg 76 81 bang;
#X msg 104 147 stop;
#X obj 104 125 del;
#X obj 201 72 t f f f;
#X obj 247 143 array define reverse 882000;
#X msg 247 119 resize \$1;
#X obj 247 95 expr ($f1*44100)/1000;
#X text 354 30 <- dur to play reverse;
#N canvas 326 185 723 444 windowing 0;
#X msg 139 160 0;
#X obj 33 251 osc~;
#X obj 33 161 samplerate~;
#X obj 33 274 *~ -0.5;
#X obj 33 297 +~ 0.5;
#X obj 23 345 tabwrite~ \$0-hann;
#X text 18 110 recalculate Hann;
#X text 500 94 window table;
#X obj 25 133 bng 19 250 50 0 empty empty empty 0 -6 0 8 #dfdfdf #000000 #000000;
#X text 106 256 DSP on/off;
#X obj 224 10 inlet;
#X obj 33 227 / 512;
#X floatatom 285 216 5 0 0 0 - - - 0;
#X obj 224 40 expr ($f1*44100)/1000;
#X floatatom 129 60 8 0 0 0 - - - 0;
#X obj 224 102 t b f f b;
#X msg 284 124 const 0;
#X msg 449 21 10000;
#X msg 531 266 0;
#X msg 359 82 64;
#X obj 287 247 bng 19 250 50 0 empty empty empty 0 -10 0 12 #fcfcfc #000000 #000000;
#X floatatom 289 413 8 0 0 0 - - - 0;
#X obj 437 212 expr array2[inc - 1] = 1 + inc \; inc = inc + 1;
#X floatatom 439 254 5 0 0 0 - - - 0;
#X floatatom 651 253 5 0 0 0 - - - 0;
#X obj 438 182 bng 19 250 50 0 empty empty empty 0 -10 0 12 #fcfcfc #000000 #000000;
#X obj 284 149 array define -yrange 0 1 hann;
#X obj 531 289 v index;
#X floatatom 441 412 5 0 0 0 - - - 0;
#X obj 264 183 array size hann;
#X obj 305 296 cyclone/counter 0 64;
#X floatatom 360 320 5 0 0 0 - - - 0;
#X msg 340 255 set 0;
#X obj 304 322 t b f;
#X floatatom 631 411 5 0 0 0 - - - 0;
#X obj 286 358 expr hann[index - 1] = 0.5*(1-cos(6.28*$f2)/64-1) \; index = index + 1 \; $f2;
#X connect 0 0 1 1;
#X connect 1 0 3 0;
#X connect 2 0 11 0;
#X connect 3 0 4 0;
#X connect 8 0 2 0;
#X connect 8 0 0 0;
#X connect 10 0 13 0;
#X connect 11 0 1 0;
#X connect 13 0 14 0;
#X connect 13 0 15 0;
#X connect 15 0 8 0;
#X connect 15 1 11 1;
#X connect 15 2 29 0;
#X connect 15 3 16 0;
#X connect 16 0 26 0;
#X connect 17 0 13 0;
#X connect 18 0 27 0;
#X connect 19 0 15 0;
#X connect 20 0 30 0;
#X connect 22 0 23 0;
#X connect 22 1 24 0;
#X connect 25 0 22 0;
#X connect 30 0 31 0;
#X connect 30 0 33 0;
#X connect 31 0 35 1;
#X connect 32 0 30 0;
#X connect 33 0 35 0;
#X connect 35 0 21 0;
#X connect 35 1 28 0;
#X connect 35 2 34 0;
#X restore 224 234 pd windowing;
#X obj 704 56 tgl 19 0 empty empty empty 0 -10 0 12 #fcfcfc #000000 #000000 0 1;
#X connect 0 0 1 0;
#X connect 0 0 4 0;
#X connect 1 0 2 0;
#X connect 1 1 11 0;
#X connect 2 0 12 0;
#X connect 3 0 10 0;
#X connect 3 0 26 0;
#X connect 5 0 2 1;
#X connect 5 1 3 2;
#X connect 8 0 13 0;
#X connect 10 0 8 0;
#X connect 11 0 3 1;
#X connect 12 0 3 0;
#X connect 13 0 27 0;
#X connect 14 0 15 0;
#X connect 14 0 32 0;
#X connect 16 0 36 0;
#X connect 17 0 33 0;
#X connect 18 0 7 0;
#X connect 20 0 19 0;
#X connect 21 0 22 0;
#X connect 22 1 0 0;
#X connect 22 2 23 0;
#X connect 23 0 24 0;
#X connect 25 0 28 0;
#X connect 25 0 27 1;
#X connect 26 0 25 0;
#X connect 27 0 14 0;
#X connect 28 0 30 0;
#X connect 29 0 27 1;
#X connect 30 0 29 0;
#X connect 31 0 14 1;
#X connect 33 0 7 0;
#X connect 33 0 35 0;
#X connect 34 0 7 0;
#X connect 35 0 34 0;
#X connect 36 0 35 1;
#X connect 36 1 41 0;
#X connect 36 2 39 0;
#X connect 38 0 37 0;
#X connect 39 0 38 0;
#X connect 42 0 19 0;
