#N canvas 1180 26 1505 986 12;
#X obj 252 154 unpack 0 0 0, f 68;
#X obj 257 658 *~;
#X obj 727 225 t b f, f 33;
#X obj 776 79 inlet;
#X obj 728 324 expr 20000/(100-$f2)*$f1*$f1/2500;
#X obj 252 89 inlet;
#X obj 600 80 inlet;
#X obj 257 685 outlet~;
#X obj 252 124 t l b;
#X obj 956 295 min 99;
#X obj 781 260 clip 3 100;
#X obj 488 177 - 100;
#X obj 488 223 * 1;
#X text 769 56 durcoeff;
#X obj 728 286 50, f 8;
#X text 597 60 ataque;
#X text 26 88 freq \, amp(100 = 0db) damping ->;
#X obj 499 87 inlet;
#X text 492 68 vel map;
#X obj 488 273 * 1;
#X obj 728 354 * 1;
#X obj 488 247 sqrt 4;
#N canvas 961 697 450 300 dbtoa 0;
#X obj 125 84 t b f;
#X obj 125 150 pow;
#X msg 125 111 10;
#X obj 158 130 / 20;
#X obj 125 56 inlet;
#X obj 125 174 outlet;
#X connect 0 0 2 0;
#X connect 0 1 3 0;
#X connect 1 0 5 0;
#X connect 2 0 1 0;
#X connect 3 0 1 1;
#X connect 4 0 0 0;
#X restore 488 200 pd dbtoa;
#X obj 591 479 pack f f 0 f;
#N canvas 294 90 1361 798 envelope 0;
#X obj 334 51 inlet;
#X obj 334 93 t b l, f 6;
#X text 379 50 <- amp inicial \, ataque \, amp final \, decay;
#X obj 373 119 unpack f f f f, f 18;
#X obj 334 186 f;
#X obj 352 163 +;
#X obj 334 240 pack f f f f f f, f 29;
#X obj 534 173 * 2;
#X text 545 240 <- duração total (ataque+sustain+decay \$1) \, amp inicial (\$2) \, ataque (\$3) \, amp final (\$4) \, decay (\$5) \, tempo para iniciar decay \$6, f 90;
#X msg 335 272 0 \, \$2 \$3 0 \, \$4 \$5 \$6;
#X obj 335 302 outlet;
#X connect 0 0 1 0;
#X connect 1 0 4 0;
#X connect 1 1 3 0;
#X connect 3 0 6 1;
#X connect 3 1 6 2;
#X connect 3 1 7 0;
#X connect 3 2 6 3;
#X connect 3 3 5 1;
#X connect 3 3 6 4;
#X connect 4 0 6 0;
#X connect 5 0 4 1;
#X connect 6 0 9 0;
#X connect 7 0 6 5;
#X connect 7 0 5 0;
#X connect 9 0 10 0;
#X restore 591 507 pd envelope;
#X obj 591 532 vline~;
#X obj 256 611 osc~;
#X msg 305 89 780 73.68 97.4521;
#X text 683 479 <- amp inicial \, ataque \, decay;
#X connect 0 0 26 0;
#X connect 0 1 11 0;
#X connect 0 2 2 0;
#X connect 1 0 7 0;
#X connect 2 0 14 0;
#X connect 2 1 9 0;
#X connect 3 0 10 0;
#X connect 4 0 20 0;
#X connect 5 0 8 0;
#X connect 6 0 23 1;
#X connect 8 0 0 0;
#X connect 9 0 4 1;
#X connect 10 0 14 1;
#X connect 11 0 22 0;
#X connect 12 0 21 0;
#X connect 14 0 4 0;
#X connect 17 0 19 1;
#X connect 17 0 20 1;
#X connect 19 0 23 0;
#X connect 20 0 23 3;
#X connect 21 0 19 0;
#X connect 22 0 12 0;
#X connect 23 0 24 0;
#X connect 24 0 25 0;
#X connect 25 0 1 1;
#X connect 26 0 1 0;
#X connect 27 0 8 0;
