#N canvas 453 146 902 834 12;
#X obj 123 475 *~;
#X obj 422 396 line~;
#X floatatom 123 201 6 0 0 0 - - - 0;
#X obj 123 293 /;
#X obj 171 239 * 0.001;
#X obj 485 460 line~;
#X obj 123 512 +~;
#X obj 67 527 cos~;
#X obj 67 554 *~;
#X obj 67 591 +~;
#X obj 363 396 wrap~;
#X obj 439 455 *~;
#X obj 439 515 +~;
#X obj 381 532 cos~;
#X obj 381 571 *~;
#X obj 171 265 t b f;
#X floatatom 123 319 6 0 0 0 - - - 0;
#X obj 363 369 +~ 0.5;
#X obj 67 475 -~ 0.5;
#X obj 67 501 *~ 0.5;
#X obj 381 455 -~ 0.5;
#X obj 381 504 *~ 0.5;
#X obj 123 239 - 1;
#X obj 123 265 * -1;
#X text 51 310 tape head;
#X obj 123 350 phasor~;
#X obj 485 411 max 1.5;
#X obj 338 220 max 1;
#X text 51 323 rotation freq, f 9;
#X msg 422 369 \$1 200;
#X msg 485 435 \$1 200;
#X text 564 386 delay (ms);
#X obj 123 149 expr pow(2 \, $f1/1200);
#X text 159 126 <-- transposition in cents;
#X text 167 193 speed change, f 6;
#X text 379 200 <-- window (ms);
#X floatatom 123 125 5 0 0 0 - - - 0;
#X floatatom 338 199 5 0 0 0 - - - 0;
#X floatatom 485 386 5 0 0 0 - - - 0;
#X obj 123 538 delread4~ pitchshifter-del\$1;
#X obj 439 544 delread4~ pitchshifter-del\$1;
#X obj 662 34 delwrite~ pitchshifter-del\$1 5000;
#X obj 662 284 genctl pitchshifter\$1-out 0;
#X obj 662 306 setctl pitchshifter\$1-out;
#X obj 67 623 *~;
#X obj 67 765 send-vu pitchshifter\$1-out-vu;
#X obj 662 81 setctl pitchshifter\$1-trans;
#X obj 662 127 setctl pitchshifter\$1-win;
#X obj 662 149 genctl pitchshifter\$1-delay 10;
#X obj 662 171 setctl pitchshifter\$1-delay;
#X obj 338 174 r pitchshifter\$1-win;
#N canvas 1239 190 218 352 envelope 0;
#X obj 105 283 line~;
#X obj 30 18 inlet;
#X obj 105 314 outlet~;
#X obj 45 182 del;
#X obj 44 132 t b f f b;
#X msg 45 216 1 \, 0 100;
#X obj 147 39 inlet;
#X obj 115 79 del, f 5;
#X obj 30 52 t b f;
#X obj 44 108 f;
#X msg 104 159 0 \, 1 100;
#X connect 0 0 2 0;
#X connect 1 0 8 0;
#X connect 3 0 5 0;
#X connect 4 0 3 0;
#X connect 4 1 3 1;
#X connect 4 3 10 0;
#X connect 5 0 0 0;
#X connect 6 0 7 1;
#X connect 7 0 9 0;
#X connect 8 0 7 0;
#X connect 8 1 9 1;
#X connect 9 0 4 0;
#X connect 10 0 0 0;
#X restore 247 604 pd envelope;
#X f 18;
#X obj 561 367 r pitchshifter\$1-delay;
#X obj 123 32 r pitchshifter\$1;
#X obj 662 59 genctl pitchshifter\$1-trans 0;
#X obj 271 106 r pitchshifter\$1-trans;
#X obj 67 707 reverb, f 7;
#X obj 113 684 r pitchshifter\$1-reverb;
#X obj 13 802 outlet~;
#X obj 13 674 inlet~;
#X obj 13 776 +~;
#X obj 123 60 unpack f f f f, f 52;
#X text 241 31 <-- trans \, dur \, del \, reverb;
#X obj 484 83 s pitchshifter\$1-reverb;
#X obj 499 157 loadbang;
#N canvas 871 101 873 632 leslie 0;
#N canvas 294 65 735 671 rate~ 0;
#X obj 484 279 block~;
#X obj 484 223 loadbang;
#X msg 484 251 set 1 1 1;
#X text 422 310 having a block-size of 1;
#X text 389 326 makes this patch "sample accurate";
#X text 385 346 in theory \, in practice it has limits;
#N canvas 630 171 760 628 divide~ 0;
#X floatatom 469 49 5 0 0 0 - - - 0;
#X obj 45 424 /~ 2;
#X obj 187 320 expr~ ( $v1 + 1 ) % $f2;
#X obj 187 291 sah~;
#X obj 469 76 sel 0;
#X obj 478 528 table \$0-feedback 1;
#X obj 187 459 poke~ \$0-feedback;
#X obj 187 234 tabread~ \$0-feedback;
#X obj 187 210 sig~ 0;
#X obj 245 436 sig~ 0;
#X obj 44 44 inlet~;
#X text 116 79 detects phasor reset;
#X obj 533 373 f;
#X obj 576 367 + 1;
#X obj 576 390 % 2;
#X text 360 397 comment;
#X text 359 326 this is basically the signal version of a float counter;
#X text 223 291 sah acts as "cold input";
#X text 515 75 divide by zero is no fun;
#X text 437 372 >>>>>>>>>>>>>;
#X text 314 476 with irregular block sizes;
#X text 316 462 send~ / recieve~ dont work for feedback in patches;
#X text 458 557 instead this patch constantly;
#X text 444 576 writes to a buffer of size 1;
#X text 346 528 >>>>>>>>>>>>>>>>>>;
#X floatatom 69 202 5 0 0 0 - - - 0;
#X text 69 180 segmented patch cord :p who needs max anyways?;
#X obj 45 525 outlet~;
#X obj 469 12 inlet;
#X obj 62 79 change~;
#X msg 466 239 5;
#X connect 0 0 4 0;
#X connect 1 0 27 0;
#X connect 2 0 1 0;
#X connect 2 0 6 0;
#X connect 3 0 2 0;
#X connect 4 1 2 1;
#X connect 4 1 25 0;
#X connect 7 0 3 0;
#X connect 8 0 7 0;
#X connect 9 0 6 1;
#X connect 10 0 1 0;
#X connect 10 0 29 0;
#X connect 12 0 13 0;
#X connect 13 0 14 0;
#X connect 14 0 12 1;
#X connect 25 0 1 1;
#X connect 28 0 0 0;
#X connect 29 0 3 1;
#X connect 30 0 2 1;
#X restore 43 300 pd divide~;
#X obj 44 153 inlet~;
#X obj 252 76 inlet;
#X obj 42 626 outlet~;
#N canvas 1005 243 353 306 multiply~ 0;
#X obj 52 32 inlet~;
#X obj 42 216 outlet~;
#X obj 50 114 *~ 0;
#X obj 125 40 inlet;
#X obj 49 153 wrap~;
#X text 103 151 isnt that nice and easy?;
#X connect 0 0 2 0;
#X connect 2 0 4 0;
#X connect 3 0 2 1;
#X connect 4 0 1 0;
#X restore 239 297 pd multiply~;
#X obj 239 523 *~ 0;
#X obj 42 518 *~ 0;
#X obj 252 176 moses 0;
#X floatatom 252 107 5 0 0 0 - - - 0;
#X obj 252 134 int;
#X text 299 104 integer rate division/multiplication is all that makes sense anyways. let me know if you experiment with this and find some cool results;
#X obj 298 204 sel 0;
#X obj 252 201 * -1;
#X obj 252 226 t f b;
#X obj 330 229 t f b;
#X msg 298 363 0;
#X msg 136 485 0;
#X msg 67 434 1;
#X msg 357 458 0;
#X msg 444 503 1;
#X obj 67 395 bng 15 250 50 0 empty empty empty 17 7 0 10 #fcfcfc #000000 #000000;
#X text 98 523 toggle div/ mult;
#X text 307 171 positive multiplies \, negative divides \, zero mutes;
#X text 313 27 incase you need an arguement;
#X connect 1 0 2 0;
#X connect 2 0 0 0;
#X connect 6 0 12 0;
#X connect 7 0 10 0;
#X connect 7 0 6 0;
#X connect 8 0 14 0;
#X connect 10 0 11 0;
#X connect 11 0 9 0;
#X connect 12 0 9 0;
#X connect 13 0 18 0;
#X connect 13 1 17 0;
#X connect 14 0 15 0;
#X connect 15 0 13 0;
#X connect 17 0 21 0;
#X connect 17 1 20 0;
#X connect 18 0 19 0;
#X connect 19 0 6 1;
#X connect 19 1 26 0;
#X connect 20 0 10 1;
#X connect 21 0 12 1;
#X connect 21 0 11 1;
#X connect 22 0 12 1;
#X connect 23 0 12 1;
#X connect 24 0 11 1;
#X connect 25 0 11 1;
#X connect 26 0 23 0;
#X connect 26 0 24 0;
#X restore 308 252 pd rate~;
#X obj 313 522 +~, f 4;
#X obj 770 255 sel 0 1 2, f 12;
#X obj 797 303 t b b;
#X floatatom 556 269 5 0 0 0 - - - 0;
#N canvas 512 189 569 570 sync_phase 0;
#X obj 106 315 t 0;
#X obj 199 317 == 1;
#N canvas 457 233 190 217 fract_part 0;
#X obj 71 19 inlet;
#X obj 71 45 t b f f;
#X obj 117 76 round;
#X obj 98 112 - 0;
#X obj 16 116 f;
#X obj 15 157 outlet;
#X obj 100 156 outlet;
#X connect 0 0 1 0;
#X connect 1 0 4 0;
#X connect 1 1 3 0;
#X connect 1 2 2 0;
#X connect 2 0 3 1;
#X connect 2 0 4 1;
#X connect 3 0 6 0;
#X connect 4 0 5 0;
#X restore 295 328 pd fract_part;
#X obj 303 414 == 0;
#X obj 303 445 tgl 15 0 empty empty empty 17 7 0 10 #fcfcfc #000000 #000000 0 1;
#X floatatom 333 306 5 0 0 0 - - - 0;
#X floatatom 295 354 5 0 0 0 - - - 0;
#X floatatom 383 363 5 0 0 0 - - - 0;
#X obj 111 535 outlet;
#X obj 105 249 + 1;
#X obj 203 210 f;
#X obj 361 187 t f f, f 10;
#X obj 105 276 cyclone/gate 4 1, f 41;
#X obj 428 214 >= 1;
#X msg 75 55 1;
#X msg 115 56 2;
#X obj 203 158 inlet;
#X floatatom 350 145 5 0 0 0 - - - 0;
#X msg 30 56 0;
#X obj 203 244 !/ 1;
#X obj 76 27 loadbang;
#X obj 159 55 r sync_phase2;
#X obj 73 179 t b f;
#X obj 389 254 cyclone/gate;
#X connect 0 0 8 0;
#X connect 1 0 8 0;
#X connect 2 0 6 0;
#X connect 2 1 7 0;
#X connect 2 1 3 0;
#X connect 3 0 4 0;
#X connect 3 0 8 0;
#X connect 9 0 12 0;
#X connect 10 0 11 0;
#X connect 10 0 19 0;
#X connect 11 0 23 1;
#X connect 11 1 13 0;
#X connect 12 0 0 0;
#X connect 12 1 1 0;
#X connect 12 2 2 0;
#X connect 12 2 5 0;
#X connect 13 0 23 0;
#X connect 14 0 22 0;
#X connect 15 0 22 0;
#X connect 16 0 10 0;
#X connect 17 0 10 0;
#X connect 18 0 22 0;
#X connect 19 0 11 0;
#X connect 20 0 14 0;
#X connect 21 0 22 0;
#X connect 22 0 10 0;
#X connect 22 1 9 0;
#X connect 23 0 12 1;
#X restore 556 347 pd sync_phase;
#X obj 556 467 pack 0 1000;
#X obj 556 502 line~;
#N canvas 749 186 748 666 leslie 0;
#X obj 116 34 inlet~;
#X obj 321 228 *~ 2;
#X obj 321 263 +~;
#X obj 321 297 sqrt~;
#X obj 321 326 *~ 2.915;
#X obj 321 355 *~;
#X obj 462 178 cyclone/pak 0 0;
#X obj 462 207 expr 2*$f1*($f1+$f2);
#X obj 653 246 * 1;
#X obj 76 469 *~;
#X obj 76 568 *~;
#X obj 76 605 outlet~;
#X msg 476 323 0.1;
#X obj 76 434 cyclone/!/~ 1;
#N canvas 884 182 853 750 variable_filter 0;
#X obj 59 557 biquad~;
#X obj 59 592 outlet~;
#X obj 152 494 nbx 4 14 -1e+37 1e+37 0 0 empty empty empty 0 -8 0 10 #dcdcdc #000000 #000000 0 256;
#X obj 499 500 nbx 4 14 -1e+37 1e+37 0 0 empty empty empty 0 -8 0 10 #dcdcdc #000000 #000000 0 256;
#X text 158 473 freq;
#X text 500 479 gain;
#X obj 307 174 *~ 1;
#X obj 307 198 pow~ 2.71828;
#X obj 307 225 -~;
#X obj 307 251 /~;
#X obj 414 203 expr exp(-$f1);
#X floatatom 413 130 5 0 10 0 - - - 0;
#X obj 565 226 expr exp($f1) - exp(-$f1);
#X obj 425 103 r depth_hf;
#X obj 307 276 -~ 1;
#X obj 152 347 *~;
#X obj 152 371 +~;
#X obj 152 400 mtof~;
#X obj 152 428 snapshot~;
#X floatatom 170 272 5 0 3 1 hf_octave - - 0;
#X floatatom 233 392 5 0 96 1 cut_picth - - 0;
#X obj 401 316 *~;
#X obj 401 338 dbtoa~;
#X obj 499 440 snapshot~;
#X floatatom 419 291 5 -15 0 1 hf_gain - - 0;
#X floatatom 325 495 5 0 6 1 filter_q - - 0;
#X obj 233 342 loadbang;
#X obj 60 432 inlet~;
#X obj 306 113 inlet~;
#X msg 419 262 -6;
#X msg 325 462 0.7;
#X msg 412 65 2;
#X obj 219 15 loadbang;
#X obj 471 263 r hf_gain;
#X obj 284 373 r cut_pitch;
#X obj 363 465 r filter_q;
#X obj 209 245 r hf_octave;
#X obj 152 518 else/bicoeff2 eq 500 10 24, f 50;
#X msg 233 367 72;
#X obj 498 409 bang~;
#X msg 170 238 1;
#X connect 0 0 1 0;
#X connect 2 0 37 0;
#X connect 3 0 37 2;
#X connect 6 0 7 0;
#X connect 7 0 8 0;
#X connect 8 0 9 0;
#X connect 9 0 14 0;
#X connect 10 0 8 1;
#X connect 11 0 6 1;
#X connect 11 0 10 0;
#X connect 11 0 12 0;
#X connect 12 0 9 1;
#X connect 13 0 11 0;
#X connect 14 0 15 0;
#X connect 14 0 21 0;
#X connect 15 0 16 0;
#X connect 16 0 17 0;
#X connect 17 0 18 0;
#X connect 18 0 2 0;
#X connect 19 0 15 1;
#X connect 20 0 16 1;
#X connect 21 0 22 0;
#X connect 22 0 23 0;
#X connect 23 0 3 0;
#X connect 24 0 21 1;
#X connect 25 0 37 1;
#X connect 26 0 38 0;
#X connect 27 0 0 0;
#X connect 28 0 6 0;
#X connect 29 0 24 0;
#X connect 30 0 25 0;
#X connect 31 0 11 0;
#X connect 32 0 40 0;
#X connect 32 0 31 0;
#X connect 32 0 29 0;
#X connect 32 0 30 0;
#X connect 33 0 24 0;
#X connect 34 0 20 0;
#X connect 35 0 25 0;
#X connect 36 0 19 0;
#X connect 37 0 0 0;
#X connect 38 0 20 0;
#X connect 39 0 23 0;
#X connect 39 0 18 0;
#X connect 40 0 19 0;
#X restore 116 91 pd variable_filter;
#X obj 321 165 !-~ 1;
#X obj 321 423 snapshot~;
#X floatatom 462 151 5 0.1 10 0 leslie_radius - - 0;
#X obj 462 84 loadbang;
#X obj 333 21 inlet~;
#X obj 198 184 env~;
#X floatatom 198 208 5 0 0 0 - - - 0;
#X obj 407 288 r init;
#X floatatom 407 337 5 0 0 0 - - - 0;
#X obj 238 44 cyclone/cycle~;
#X floatatom 657 147 5 0 10 0 leslie_dist - - 0;
#X obj 116 114 delwrite~ leslie\$1 1000;
#X obj 321 447 delread~ leslie\$1;
#X obj 476 300 loadbang;
#X obj 362 393 bang~;
#X msg 462 129 1;
#X msg 657 119 1;
#X connect 0 0 14 0;
#X connect 1 0 2 0;
#X connect 2 0 3 0;
#X connect 3 0 4 0;
#X connect 3 0 13 0;
#X connect 4 0 5 0;
#X connect 5 0 16 0;
#X connect 6 0 7 0;
#X connect 7 0 1 1;
#X connect 8 0 2 1;
#X connect 8 0 10 1;
#X connect 9 0 10 0;
#X connect 10 0 11 0;
#X connect 12 0 23 0;
#X connect 13 0 9 0;
#X connect 14 0 26 0;
#X connect 15 0 1 0;
#X connect 16 0 27 0;
#X connect 17 0 6 0;
#X connect 18 0 30 0;
#X connect 18 0 31 0;
#X connect 19 0 24 1;
#X connect 20 0 21 0;
#X connect 22 0 23 0;
#X connect 23 0 5 1;
#X connect 24 0 14 1;
#X connect 24 0 15 0;
#X connect 24 0 20 0;
#X connect 25 0 8 0;
#X connect 25 0 8 1;
#X connect 25 0 6 1;
#X connect 27 0 9 1;
#X connect 28 0 12 0;
#X connect 29 0 16 0;
#X connect 30 0 17 0;
#X connect 31 0 25 0;
#X restore 47 565 pd leslie;
#X obj 243 194 <~ 0;
#X obj 313 547 %~ 1;
#X obj 220 362 sah~;
#X obj 327 324 !-~ 1;
#X obj 220 390 snapshot~;
#X obj 170 356 bng 15 250 50 0 empty empty empty 17 7 0 10 #fcfcfc #000000 #000000;
#X obj 556 295 !/ 1;
#N canvas 294 142 273 214 gswitch 0;
#X floatatom 121 151 5 0 0 0 - - - 0;
#X floatatom 26 150 5 0 0 0 - - - 0;
#X floatatom 216 89 5 0 0 0 - - - 0;
#X obj 26 53 expr if($f1 == 0 \, 1 \, 2);
#X obj 26 26 inlet;
#X obj 122 92 inlet;
#X obj 26 172 outlet;
#X obj 121 173 outlet;
#X obj 26 113 cyclone/gate 2;
#X connect 0 0 7 0;
#X connect 1 0 6 0;
#X connect 3 0 2 0;
#X connect 3 0 8 0;
#X connect 4 0 3 0;
#X connect 5 0 8 1;
#X connect 8 0 1 0;
#X connect 8 1 0 0;
#X restore 569 404 pd gswitch;
#X obj 569 440 t 0;
#X obj 414 341 snapshot~;
#X obj 414 365 * -1;
#X text 280 65 phase rotation;
#X text 95 222 entrada;
#X floatatom 241 66 5 0 0 0 - - - 0;
#X floatatom 556 320 5 0 0 1 leslie_rate - - 0;
#X obj 241 90 phasor~;
#X floatatom 618 434 5 0 0 0 - - - 0;
#X floatatom 676 432 5 0 0 0 - - - 0;
#X floatatom 415 433 5 0 0 0 - - - 0;
#X obj 46 222 inlet~;
#X obj 47 604 outlet~;
#X msg 583 202 0.664;
#X obj 582 179 loadbang;
#X msg 669 233 -0.2;
#X obj 669 187 loadbang, f 10;
#X obj 669 210 del 300;
#X obj 241 41 line, f 5;
#X obj 82 285 cyclone/delta~;
#X obj 82 313 cyclone/<~ 0;
#X obj 82 334 cyclone/edge~;
#X obj 243 168 cyclone/delta~;
#X obj 556 144 r leslie_rate\$1;
#X obj 770 230 r sync\$1;
#X obj 241 16 r phaserot\$1;
#X connect 0 0 1 0;
#X connect 0 0 12 0;
#X connect 0 0 18 0;
#X connect 0 0 36 0;
#X connect 1 0 10 0;
#X connect 2 1 3 0;
#X connect 3 0 23 0;
#X connect 4 0 15 0;
#X connect 5 0 16 0;
#X connect 5 0 6 0;
#X connect 6 0 7 0;
#X connect 7 0 1 1;
#X connect 8 0 29 0;
#X connect 9 0 11 1;
#X connect 10 0 8 1;
#X connect 11 0 13 0;
#X connect 12 0 11 0;
#X connect 13 0 16 1;
#X connect 14 0 13 0;
#X connect 15 0 23 0;
#X connect 16 0 17 0;
#X connect 16 0 25 0;
#X connect 16 1 26 0;
#X connect 17 0 6 0;
#X connect 18 0 19 0;
#X connect 19 0 6 0;
#X connect 19 0 27 0;
#X connect 22 0 24 0;
#X connect 23 0 5 0;
#X connect 23 0 0 1;
#X connect 24 0 0 0;
#X connect 24 0 39 0;
#X connect 28 0 8 0;
#X connect 30 0 4 0;
#X connect 31 0 30 0;
#X connect 32 0 4 0;
#X connect 33 0 34 0;
#X connect 34 0 32 0;
#X connect 35 0 22 0;
#X connect 36 0 37 0;
#X connect 37 0 38 0;
#X connect 38 1 14 0;
#X connect 39 0 9 0;
#X connect 40 0 4 0;
#X connect 41 0 2 0;
#X connect 42 0 35 0;
#X restore 67 734 pd leslie;
#X obj 662 11 r~ input-sig;
#X obj 662 194 genctl pitchshifter\$1-reverb 50;
#X obj 662 216 setctl pitchshifter\$1-reverb;
#X obj 662 239 genctl phaserot\$1 0;
#X obj 662 261 setctl phaserot\$1;
#X msg 499 181 300;
#X obj 662 105 genctl pitchshifter\$1-win 300;
#X connect 0 0 6 0;
#X connect 1 0 0 1;
#X connect 1 0 11 1;
#X connect 2 0 22 0;
#X connect 3 0 16 0;
#X connect 4 0 15 0;
#X connect 5 0 6 1;
#X connect 5 0 12 1;
#X connect 6 0 39 0;
#X connect 7 0 8 0;
#X connect 8 0 9 0;
#X connect 9 0 44 0;
#X connect 10 0 11 0;
#X connect 10 0 20 0;
#X connect 11 0 12 0;
#X connect 12 0 40 0;
#X connect 13 0 14 0;
#X connect 14 0 9 1;
#X connect 15 0 3 0;
#X connect 15 1 3 1;
#X connect 16 0 25 0;
#X connect 17 0 10 0;
#X connect 18 0 19 0;
#X connect 19 0 7 0;
#X connect 20 0 21 0;
#X connect 21 0 13 0;
#X connect 22 0 23 0;
#X connect 23 0 3 0;
#X connect 25 0 0 0;
#X connect 25 0 18 0;
#X connect 25 0 17 0;
#X connect 26 0 30 0;
#X connect 27 0 4 0;
#X connect 27 0 29 0;
#X connect 29 0 1 0;
#X connect 30 0 5 0;
#X connect 32 0 2 0;
#X connect 36 0 32 0;
#X connect 37 0 27 0;
#X connect 38 0 26 0;
#X connect 39 0 8 1;
#X connect 40 0 14 1;
#X connect 44 0 56 0;
#X connect 50 0 37 0;
#X connect 51 0 44 1;
#X connect 52 0 38 0;
#X connect 53 0 61 0;
#X connect 55 0 36 0;
#X connect 56 0 65 0;
#X connect 57 0 56 1;
#X connect 59 0 60 0;
#X connect 60 0 58 0;
#X connect 61 0 36 0;
#X connect 61 1 51 0;
#X connect 61 2 38 0;
#X connect 61 2 51 1;
#X connect 61 3 63 0;
#X connect 64 0 71 0;
#X connect 65 0 60 1;
#X connect 65 0 45 0;
#X connect 66 0 41 0;
#X connect 71 0 37 0;
