#N canvas 497 31 1209 895 12;
#X obj 235 367 timer, f 6;
#X obj 217 459 t f f, f 6;
#X obj 217 492 +;
#X obj 217 559 pack f f f, f 11;
#X floatatom 377 386 8 0 0 1 before\ attack(ms) - - 0;
#X text 299 559 <- total(start point) \, end point \, dur attack;
#X obj 92 324 tabwrite~ reverse;
#X obj 217 639 line~;
#X text 286 597 start(samples) \, end(samples) dur(ms);
#X msg 217 596 \$1 \, \$2 \$3;
#X obj 256 484 expr ($f1*44100)/1000;
#X obj 217 515 expr ($f1*44100)/1000;
#X obj 217 665 tabread4~ reverse;
#X obj 92 99 sel 0 1, f 12;
#X msg 93 241 stop;
#X obj 217 754 *~;
#X obj 235 731 amp4~ reverse-out;
#X obj 218 868 throw~ reverse-spat-out;
#X obj 440 863 send-vu reverse-out-vu;
#X obj 92 14 r start-rec-reverse;
#X obj 278 303 r reverse-event;
#X obj 132 300 r~ input-sig;
#X obj 850 33 switch~;
#X obj 850 9 r enable-reverse;
#N canvas 1666 251 479 360 chronometer 0;
#X obj 74 160 f;
#X msg 203 141 0;
#X floatatom 74 216 6 0 0 1 counting\ time - reverse-chronometer 0;
#X obj 74 185 * 1000;
#X obj 74 133 metro 500;
#X obj 131 160 + 0.5;
#X obj 106 283 timer;
#X floatatom 106 307 5 0 0 1 total\ time\ length - - 0;
#X obj 74 86 t f b b, f 9;
#X obj 42 7 inlet;
#X obj 131 184 sel 20.5;
#X obj 131 242 t b b b;
#X obj 177 269 outlet;
#X text 224 270 bangs every 20 seconds;
#X obj 42 35 t f f;
#X obj 45 253 sel 0;
#X connect 0 0 3 0;
#X connect 0 0 5 0;
#X connect 1 0 0 1;
#X connect 3 0 2 0;
#X connect 4 0 0 0;
#X connect 5 0 0 1;
#X connect 5 0 10 0;
#X connect 6 0 7 0;
#X connect 8 0 4 0;
#X connect 8 1 6 0;
#X connect 8 2 1 0;
#X connect 9 0 14 0;
#X connect 10 0 1 0;
#X connect 10 0 11 0;
#X connect 11 0 6 0;
#X connect 11 1 6 1;
#X connect 11 2 12 0;
#X connect 14 0 15 0;
#X connect 14 1 8 0;
#X connect 15 0 12 0;
#X restore 173 138 pd chronometer;
#X obj 92 74 t f b f, f 12;
#X obj 173 163 t b b b, f 16;
#X msg 282 190 const 0;
#X obj 282 214 array define reverse 882000;
#X obj 217 702 *~;
#X obj 279 414 del, f 7;
#X obj 217 433 f;
#X obj 278 328 t b b;
#X obj 242 71 t f f f f, f 18;
#X text 233 15 <- start recording;
#X obj 355 634 f;
#X obj 295 615 t b;
#N canvas 330 79 286 358 envelope 0;
#X obj 118 252 line 0 50;
#X obj 173 169 line 0 50;
#X obj 118 200 / 2;
#X msg 118 228 0 \, 1 \$1 50;
#X obj 136 103 del;
#X obj 173 123 f;
#X obj 192 79 / 2;
#X obj 118 327 outlet;
#X obj 48 25 inlet;
#X obj 48 49 t b f f, f 21;
#X msg 173 145 1 \, 0 \$1 50;
#X connect 0 0 7 0;
#X connect 1 0 7 0;
#X connect 2 0 3 0;
#X connect 3 0 0 0;
#X connect 4 0 5 0;
#X connect 5 0 10 0;
#X connect 6 0 5 1;
#X connect 6 0 4 1;
#X connect 8 0 9 0;
#X connect 9 0 4 0;
#X connect 9 1 2 0;
#X connect 9 2 6 0;
#X connect 10 0 1 0;
#X restore 355 683 pd envelope;
#X obj 948 667 r reverse-set;
#X text 946 647 set an array with pre-recorded audio;
#X obj 948 690 list prepend set;
#X obj 948 714 list trim;
#X obj 687 733 tabread4~ sample10;
#X obj 687 704 line~;
#X obj 737 575 /;
#X obj 737 606 * 1000;
#X obj 705 546 t f f;
#X obj 705 513 r buffer-samples;
#X obj 755 546 r buffer-samplerate;
#X obj 687 655 pack f f;
#X msg 687 679 \$1 \, 0 \$2;
#X obj 687 573 f;
#X obj 687 483 r reverse-event2;
#X obj 929 589 / 100;
#X obj 929 613 t b f;
#X obj 740 632 / 1;
#X obj 929 564 r reverse-speed;
#X text 615 90 $f1=reverse-attack-time \; $f2=speed;
#X text 784 605 audio dur (ms);
#X text 766 633 proportional dur (speed);
#X obj 365 93 expr if($f2 != 100 \, ($f1/$f2) \, $f1);
#X obj 607 47 r reverse-attack-speed;
#X obj 607 70 / 100;
#X obj 242 47 r reverse-attack-time;
#X text 397 47 <- delay time to play;
#X obj 290 453 expr if($f2 != 100 \, ($f1/$f2) \, $f1);
#X obj 532 407 r reverse-attack-speed;
#X obj 532 430 / 100;
#X obj 218 814 r reverse-del;
#X obj 217 778 delwrite~ reverse-del 5000;
#X obj 218 836 delread4~ reverse-del 1000;
#X connect 0 0 4 0;
#X connect 0 0 31 1;
#X connect 1 0 2 0;
#X connect 1 1 10 0;
#X connect 2 0 11 0;
#X connect 3 0 9 0;
#X connect 7 0 12 0;
#X connect 9 0 7 0;
#X connect 9 0 36 0;
#X connect 10 0 3 1;
#X connect 11 0 3 0;
#X connect 12 0 29 0;
#X connect 13 0 14 0;
#X connect 13 1 6 0;
#X connect 14 0 6 0;
#X connect 15 0 69 0;
#X connect 16 0 15 1;
#X connect 19 0 25 0;
#X connect 20 0 32 0;
#X connect 21 0 6 0;
#X connect 23 0 22 0;
#X connect 24 0 26 0;
#X connect 25 0 13 0;
#X connect 25 1 0 0;
#X connect 25 2 24 0;
#X connect 26 0 6 0;
#X connect 26 1 0 0;
#X connect 26 2 27 0;
#X connect 27 0 28 0;
#X connect 29 0 15 0;
#X connect 30 0 31 0;
#X connect 31 0 1 0;
#X connect 32 0 30 0;
#X connect 32 1 0 1;
#X connect 33 0 2 1;
#X connect 33 1 65 0;
#X connect 33 2 30 1;
#X connect 33 3 60 0;
#X connect 35 0 37 0;
#X connect 36 0 35 0;
#X connect 37 0 29 1;
#X connect 38 0 40 0;
#X connect 40 0 41 0;
#X connect 41 0 42 0;
#X connect 42 0 15 0;
#X connect 43 0 42 0;
#X connect 44 0 45 0;
#X connect 45 0 55 0;
#X connect 46 0 51 1;
#X connect 46 1 44 0;
#X connect 47 0 46 0;
#X connect 48 0 44 1;
#X connect 49 0 50 0;
#X connect 50 0 43 0;
#X connect 51 0 49 0;
#X connect 52 0 51 0;
#X connect 53 0 54 0;
#X connect 54 0 55 0;
#X connect 54 1 55 1;
#X connect 55 0 49 1;
#X connect 56 0 53 0;
#X connect 60 0 35 1;
#X connect 61 0 62 0;
#X connect 62 0 60 1;
#X connect 63 0 33 0;
#X connect 65 0 3 2;
#X connect 66 0 67 0;
#X connect 67 0 65 1;
#X connect 68 0 70 0;
#X connect 70 0 17 0;
#X connect 70 0 18 0;
