#N canvas 1212 30 764 573 12;
#X msg 334 212 set 10000;
#X obj 133 126 sel 0 1;
#X obj 355 86 == \$1;
#X msg 162 180 0;
#X floatatom 355 108 0 0 0 0 - - - 0;
#X obj 207 181 i;
#X obj 245 180 + 1;
#X obj 209 336 t f f;
#X obj 209 365 -;
#X msg 249 465 rewind;
#X obj 249 369 sel 0;
#X msg 128 538 0;
#X obj 142 423 t b f b b;
#X msg 257 393 0;
#X msg 258 424 99999;
#X obj 182 533 unpack;
#X obj 51 395 del;
#X obj 182 508 pack;
#X obj 208 211 change;
#X text 237 250 event number;
#X obj 202 127 spigot;
#X msg 181 460 next;
#X text 214 64 manual step;
#X text 363 44 section number;
#X obj 274 520 route \$1;
#X obj 142 397 moses 0;
#X obj 83 512 moses 1;
#X obj 181 484 qlist;
#X obj 202 155 t b;
#X msg 51 369 stop;
#X obj 355 64 r sequencer-section-number;
#X obj 202 86 r sequencer-step;
#X obj 255 274 s sequencer-label;
#X text 190 4 QLIST SEQUENCER;
#X obj 51 344 r sequencer-reset;
#X obj 274 495 r sequencer-qlist-number;
#X obj 415 151 r reset;
#X obj 415 176 f \$1;
#X obj 527 354 r sequencer-start-\$1;
#X obj 527 379 b;
#X obj 527 404 f \$1;
#X obj 527 429 s sequencer-start;
#X msg 414 209 \; sequencer-qlist-number \$1 read score-sec\$1.txt;
#X connect 0 0 18 0;
#X connect 1 1 3 0;
#X connect 2 0 1 0;
#X connect 2 0 4 0;
#X connect 3 0 5 0;
#X connect 4 0 20 1;
#X connect 5 0 6 0;
#X connect 5 0 18 0;
#X connect 6 0 5 1;
#X connect 7 0 8 0;
#X connect 7 1 10 0;
#X connect 8 0 25 0;
#X connect 9 0 27 0;
#X connect 10 0 13 0;
#X connect 10 0 9 0;
#X connect 11 0 16 1;
#X connect 12 0 16 0;
#X connect 12 1 26 0;
#X connect 12 2 21 0;
#X connect 12 3 14 0;
#X connect 13 0 8 1;
#X connect 14 0 8 1;
#X connect 15 0 16 1;
#X connect 15 1 8 1;
#X connect 16 0 8 0;
#X connect 17 0 15 0;
#X connect 18 0 7 0;
#X connect 18 0 32 0;
#X connect 20 0 28 0;
#X connect 21 0 27 0;
#X connect 24 0 27 0;
#X connect 25 1 12 0;
#X connect 26 1 11 0;
#X connect 27 0 17 0;
#X connect 28 0 5 0;
#X connect 29 0 16 0;
#X connect 30 0 2 0;
#X connect 31 0 20 0;
#X connect 34 0 29 0;
#X connect 35 0 24 0;
#X connect 36 0 37 0;
#X connect 36 0 0 0;
#X connect 37 0 42 0;
#X connect 38 0 39 0;
#X connect 39 0 40 0;
#X connect 40 0 41 0;
