#N canvas 294 103 1251 581 12;
#X obj 30 54 hip~ 5;
#X obj 741 55 genctl sampler1-spat-ctrl 0.01;
#X obj 741 79 setctl sampler1-spat-ctrl;
#X obj 109 76 hip~ 5;
#X obj 40 354 hoa.2d.decoder~ 3 binaural 2 @crop 256, f 84;
#X obj 40 377 throw~ spat-out1;
#X obj 625 379 throw~ spat-out2;
#X obj 38 236 r spat-map-set;
#X obj 30 28 catch~ sampler1-spat-out;
#X obj 109 51 catch~ sampler2-spat-out;
#X obj 748 546 send-vu spat-out7-vu;
#X obj 628 522 send-vu spat-out6-vu;
#X obj 508 499 send-vu spat-out5-vu;
#X obj 389 476 send-vu spat-out4-vu;
#X obj 269 453 send-vu spat-out3-vu;
#X obj 149 430 send-vu spat-out2-vu;
#X obj 30 406 send-vu spat-out1-vu;
#X text 852 328 optmim maxRe = publico concentrado no centro do círculo;
#X text 867 302 optmim inphase = publico espalhado pelo circulo;
#X msg 768 304 @mode inphase;
#X obj 40 323 hoa.optim~ 3 inphase, f 84;
#X obj 190 99 hip~ 5;
#X obj 190 74 catch~ reverse-spat-out;
#X obj 269 96 catch~ osc-spat-out;
#X obj 349 119 catch~ oscps-spat-out;
#X obj 269 120 hip~ 5;
#X obj 349 141 hip~ 5;
#X obj 428 167 hip~ 5;
#X obj 428 142 catch~ pqmf1-spat-out;
#X obj 508 190 hip~ 5;
#X obj 508 165 catch~ pqmf2-spat-out;
#X obj 588 213 hip~ 5;
#X obj 588 188 catch~ pqmf3-spat-out;
#X obj 276 209 catch~ soundfile-player-spat-out;
#X obj 276 236 hip~ 5;
#X obj 668 211 catch~ gaitacol-spat-out;
#X obj 668 237 hip~ 5;
#X obj 360 49 catch~ osc2-spat-out;
#X obj 508 49 catch~ oscps2-spat-out;
#X obj 360 73 hip~ 5;
#X obj 508 72 hip~ 5;
#X obj 748 233 catch~ pitchshifrer-spat-out;
#X obj 30 282 hoa.map~ 3 10, f 103;
#X obj 748 259 hip~ 5;
#X msg 767 328 @mode maxre;
#X connect 0 0 42 0;
#X connect 3 0 42 1;
#X connect 4 0 5 0;
#X connect 4 1 6 0;
#X connect 7 0 42 0;
#X connect 8 0 0 0;
#X connect 9 0 3 0;
#X connect 19 0 20 0;
#X connect 20 0 4 0;
#X connect 20 1 4 1;
#X connect 20 2 4 2;
#X connect 20 3 4 3;
#X connect 20 4 4 4;
#X connect 20 5 4 5;
#X connect 20 6 4 6;
#X connect 21 0 42 2;
#X connect 22 0 21 0;
#X connect 23 0 25 0;
#X connect 24 0 26 0;
#X connect 25 0 42 3;
#X connect 26 0 42 4;
#X connect 27 0 42 5;
#X connect 28 0 27 0;
#X connect 29 0 42 6;
#X connect 30 0 29 0;
#X connect 31 0 42 7;
#X connect 32 0 31 0;
#X connect 33 0 34 0;
#X connect 34 0 42 3;
#X connect 35 0 36 0;
#X connect 36 0 42 8;
#X connect 37 0 39 0;
#X connect 38 0 40 0;
#X connect 39 0 42 3;
#X connect 40 0 42 4;
#X connect 41 0 43 0;
#X connect 42 0 16 0;
#X connect 42 0 20 0;
#X connect 42 1 15 0;
#X connect 42 1 20 1;
#X connect 42 2 14 0;
#X connect 42 2 20 2;
#X connect 42 3 13 0;
#X connect 42 3 20 3;
#X connect 42 4 12 0;
#X connect 42 4 20 4;
#X connect 42 5 11 0;
#X connect 42 5 20 5;
#X connect 42 6 10 0;
#X connect 42 6 20 6;
#X connect 43 0 42 9;
#X connect 44 0 20 0;
