#N canvas 415 159 1118 562 12;
#X obj 78 180 hip~ 5;
#X obj 851 386 genctl sampler1-spat-ctrl 0.01;
#X obj 851 410 setctl sampler1-spat-ctrl;
#X obj 663 178 hip~ 5;
#X obj 88 283 hoa.2d.decoder~ 3 binaural 2 @crop 256, f 84;
#X obj 88 306 throw~ spat-out1;
#X obj 673 308 throw~ spat-out2;
#X obj 76 79 r spat-map-set;
#X obj 78 120 catch~ sampler1-spat-out;
#X obj 663 120 catch~ sampler2-spat-out;
#X obj 666 502 send-vu spat-out7-vu;
#X obj 570 472 send-vu spat-out6-vu;
#X obj 471 445 send-vu spat-out5-vu;
#X obj 372 416 send-vu spat-out4-vu;
#X obj 274 390 send-vu spat-out3-vu;
#X obj 176 362 send-vu spat-out2-vu;
#X obj 78 335 send-vu spat-out1-vu;
#X text 697 268 optmim maxRe = publico concentrado no centro do círculo;
#X text 695 253 optmim inphase = publico espalhado pelo circulo;
#X msg 816 233 @mode inphase;
#X obj 78 211 hoa.map~ 3 2, f 84;
#X obj 88 252 hoa.optim~ 3 inphase, f 84;
#X connect 0 0 20 0;
#X connect 3 0 20 1;
#X connect 4 0 5 0;
#X connect 4 1 6 0;
#X connect 7 0 20 0;
#X connect 8 0 0 0;
#X connect 9 0 3 0;
#X connect 19 0 21 0;
#X connect 20 0 16 0;
#X connect 20 0 21 0;
#X connect 20 1 15 0;
#X connect 20 1 21 1;
#X connect 20 2 14 0;
#X connect 20 2 21 2;
#X connect 20 3 13 0;
#X connect 20 3 21 3;
#X connect 20 4 12 0;
#X connect 20 4 21 4;
#X connect 20 5 11 0;
#X connect 20 5 21 5;
#X connect 20 6 10 0;
#X connect 20 6 21 6;
#X connect 21 0 4 0;
#X connect 21 1 4 1;
#X connect 21 2 4 2;
#X connect 21 3 4 3;
#X connect 21 4 4 4;
#X connect 21 5 4 5;
#X connect 21 6 4 6;
