#N canvas 616 45 879 1003 12;
#X obj 106 245 array size \$1;
#X obj 367 218 f \$2;
#X text 272 218 sample inicio;
#X obj 478 211 f \$3;
#X text 517 211 duração;
#X obj 129 539 tabread \$1;
#X obj 127 442 f;
#X obj 127 415 until;
#X obj 136 626 *;
#X obj 128 468 t f f f;
#X obj 187 296 array size \$0numerador;
#X obj 186 318 array size \$0denominador;
#X obj 513 81 table \$0denominador;
#X obj 513 60 table \$0numerador;
#X obj 136 649 tabwrite \$0numerador;
#X obj 283 649 tabwrite \$0denominador;
#X obj 106 281 t b f b f;
#X obj 108 697 array sum \$0numerador;
#X obj 140 721 array sum \$0denominador;
#X obj 108 746 /;
#X obj 108 674 t b b;
#X obj 157 442 + 1;
#X text 207 564 potencia instantanea;
#X obj 106 227 bng 15 250 50 0 empty empty empty 17 7 0 10 #fcfcfc #000000 #000000;
#X text 642 57 calculo do numerador da equacao;
#X text 652 81 calculo de denominador;
#X obj 129 566 pow 2;
#X text 170 565 e[t];
#X text 160 625 e[t]*t;
#X text 285 625 e[t];
#X text 405 243 S_i;
#X text 463 236 d;
#X obj 367 192 bng 15 250 50 0 empty empty empty 17 7 0 10 #fcfcfc #000000 #000000;
#X obj 479 189 bng 15 250 50 0 empty empty empty 17 7 0 10 #fcfcfc #000000 #000000;
#X floatatom 478 238 7 0 0 0 - - - 0;
#X floatatom 367 242 5 0 0 0 - - - 0;
#X obj 367 266 != 0;
#X obj 478 261 != 0;
#X floatatom 367 290 5 0 0 0 - - - 0;
#X floatatom 478 288 5 0 0 0 - - - 0;
#X obj 460 314 &&;
#X floatatom 460 338 5 0 0 0 - - - 0;
#X obj 191 398 f;
#X msg 209 372 0;
#X text 207 355 amostra de inicio;
#X obj 460 360 sel 0 1;
#X obj 367 160 t b b;
#X obj 461 444 t b b;
#X obj 252 243 f \$3;
#X obj 515 411 f \$2;
#X obj 174 492 -;
#X obj 191 420 t f f;
#X obj 207 759 +;
#X obj 483 387 t b b;
#X obj 88 24 inlet~;
#X obj 88 181 tabwrite~ \$1;
#X msg 367 101 stop;
#X obj 367 125 t b a;
#X text 526 361 1: calcula "slice" \; 0: calcula tudo;
#X obj 367 77 del 2000;
#X text 618 36 sinal a ser analisado;
#X obj 513 38 table \$1 88200;
#X text 505 111 \$1: array \, \$2: start(sample) \, \$3: end(sample);
#X obj 154 792 samplerate~;
#X obj 108 769 t f f b;
#X obj 108 885 /;
#X obj 108 908 * 1000;
#X obj 206 819 /;
#X obj 206 842 * 1000;
#X msg 159 926 0;
#X msg 210 926 2000;
#X obj 108 950 featureNorm 1 0;
#X obj 159 904 loadbang;
#X obj 108 974 outlet;
#X text 157 975 trecho com maior concetração energia(normalizado [0 \, 1]);
#X obj 232 894 outlet;
#X msg 257 843 0;
#X msg 308 843 2000;
#X obj 206 867 featureNorm 1 0;
#X obj 257 811 loadbang;
#X text 280 895 trecho com menos concetração de energia(normalizado [0 \, 1]);
#X obj 598 191 send pd;
#X msg 598 164 fast-forward 2000;
#X obj 127 47 t b b;
#X connect 0 0 16 0;
#X connect 1 0 35 0;
#X connect 3 0 34 0;
#X connect 5 0 26 0;
#X connect 6 0 9 0;
#X connect 6 0 21 0;
#X connect 7 0 6 0;
#X connect 8 0 14 0;
#X connect 9 0 5 0;
#X connect 9 1 8 1;
#X connect 9 2 50 0;
#X connect 16 0 20 0;
#X connect 16 1 7 0;
#X connect 16 2 42 0;
#X connect 16 3 10 0;
#X connect 16 3 11 0;
#X connect 17 0 19 0;
#X connect 18 0 19 1;
#X connect 19 0 64 0;
#X connect 20 0 17 0;
#X connect 20 1 18 0;
#X connect 21 0 6 1;
#X connect 23 0 0 0;
#X connect 26 0 15 0;
#X connect 26 0 8 0;
#X connect 32 0 1 0;
#X connect 33 0 3 0;
#X connect 34 0 37 0;
#X connect 35 0 36 0;
#X connect 36 0 38 0;
#X connect 37 0 39 0;
#X connect 38 0 40 0;
#X connect 39 0 40 1;
#X connect 40 0 41 0;
#X connect 41 0 45 0;
#X connect 42 0 51 0;
#X connect 43 0 42 1;
#X connect 45 0 47 0;
#X connect 45 1 53 0;
#X connect 46 0 32 0;
#X connect 46 1 33 0;
#X connect 47 0 23 0;
#X connect 47 1 43 0;
#X connect 48 0 16 0;
#X connect 49 0 42 1;
#X connect 50 0 14 1;
#X connect 50 0 15 1;
#X connect 51 0 6 1;
#X connect 51 1 50 1;
#X connect 51 1 52 1;
#X connect 52 0 67 0;
#X connect 53 0 48 0;
#X connect 53 1 49 0;
#X connect 54 0 55 0;
#X connect 54 1 83 0;
#X connect 56 0 57 0;
#X connect 57 0 46 0;
#X connect 57 1 55 0;
#X connect 59 0 56 0;
#X connect 63 0 65 1;
#X connect 63 0 67 1;
#X connect 64 0 65 0;
#X connect 64 1 52 0;
#X connect 64 2 63 0;
#X connect 65 0 66 0;
#X connect 66 0 71 0;
#X connect 67 0 68 0;
#X connect 68 0 78 0;
#X connect 69 0 71 1;
#X connect 70 0 71 2;
#X connect 71 0 73 0;
#X connect 72 0 69 0;
#X connect 72 0 70 0;
#X connect 76 0 78 1;
#X connect 77 0 78 2;
#X connect 78 0 75 0;
#X connect 79 0 76 0;
#X connect 79 0 77 0;
#X connect 82 0 81 0;
#X connect 83 0 59 0;
#X connect 83 1 55 0;
